/* XPM */
static char *ac490d9d59d842fb93a254130bacb1d9jG3g98L7GqwqThEb[] = {
/* columns rows colors chars-per-pixel */
"64 64 171 2 ",
"   c #63615F",
".  c #676462",
"X  c #6B6666",
"o  c #6E6B69",
"O  c #716D6C",
"+  c #75726E",
"@  c #767472",
"#  c #7A7775",
"$  c #7B7975",
"%  c #7D7B7A",
"&  c #817E7C",
"*  c #84817E",
"=  c #817F81",
"-  c #858382",
";  c #898685",
":  c #8A8886",
">  c #8A8788",
",  c #8D8C8B",
"<  c #918E8D",
"1  c #8F908D",
"2  c #92918E",
"3  c #8F8F91",
"4  c #8F9192",
"5  c #959493",
"6  c #999795",
"7  c #9B9996",
"8  c #999798",
"9  c #96989A",
"0  c #9D9C9A",
"q  c #A19E9D",
"w  c #9FA19E",
"e  c #A2A19E",
"r  c #AAA49F",
"t  c #9E9EA0",
"y  c #A29FA0",
"u  c #A5A4A3",
"i  c #A8A6A5",
"p  c #A7A8A7",
"a  c #AAA9A6",
"s  c #A6A7A8",
"d  c #A8A7A8",
"f  c #A7A8A9",
"g  c #ACACAB",
"h  c #B0ACA7",
"j  c #B0AFAD",
"k  c #AFB0AE",
"l  c #B1B1AE",
"z  c #AEAEB0",
"x  c #B1AFB0",
"c  c #AFB1B0",
"v  c #B4B4B3",
"b  c #B8B4B3",
"n  c #B8B7B4",
"m  c #BAB7B4",
"M  c #B9B7B7",
"N  c #B8B7B5",
"B  c #B7B8B6",
"V  c #B7B8B6",
"C  c #B8B8B5",
"Z  c #B9B9B5",
"A  c #B8B8B6",
"S  c #B9B8B6",
"D  c #B9B8B7",
"F  c #B9B9B7",
"G  c #B8B8B7",
"H  c #BAB9B7",
"J  c #BBB9B6",
"K  c #B9BAB7",
"L  c #BBBAB7",
"P  c #BBBAB6",
"I  c #BAB8B4",
"U  c #BCBAB6",
"Y  c #BDBAB7",
"T  c #BCB8B6",
"R  c #B9B9B6",
"E  c #B7B7B8",
"W  c #B7B7B9",
"Q  c #B9B7B8",
"!  c #B7B9B9",
"~  c #B7B8B9",
"^  c #B7BABA",
"/  c #B7B9B8",
"(  c #B9B8B8",
")  c #B8B9B8",
"_  c #B9B9B8",
"`  c #B8B8B9",
"'  c #B9B9B9",
"]  c gray72",
"[  c #BAB9B8",
"{  c #BAB9B9",
"}  c #B9BAB8",
"|  c #BABAB9",
" . c #BABBB9",
".. c #BBBBB9",
"X. c #BBBAB9",
"o. c #BABBBA",
"O. c #BABABB",
"+. c #BBBBBB",
"@. c #BCBBB8",
"#. c #BCBBB9",
"$. c #BBBCBB",
"%. c #BCBCBA",
"&. c #BCBCBB",
"*. c #BDBDBB",
"=. c #BDBDBA",
"-. c #BEBDBA",
";. c #BDBFBB",
":. c #BFBFBB",
">. c #BDBCBC",
",. c #BCBDBC",
"<. c #BDBDBC",
"1. c #BFBCBC",
"2. c #BEBDBD",
"3. c #BEBEBC",
"4. c #BFBEBC",
"5. c #BFBFBD",
"6. c #BDBDBE",
"7. c #BEBDBF",
"8. c #BCBCBB",
"9. c #C0BEBC",
"0. c #C1BFBC",
"q. c #C0BFBE",
"w. c #C0BFBD",
"e. c #BFC0BF",
"r. c #BFC0BE",
"t. c #BFC0BD",
"y. c #C1C1BD",
"u. c #C0C0BF",
"i. c #C1C1BE",
"p. c #C2C1BF",
"a. c #C3C2BE",
"s. c #C1C1BE",
"d. c #BEBEC0",
"f. c #BFC1C0",
"g. c #BFC2C2",
"h. c #C1C0C0",
"j. c #C0C1C1",
"k. c #C2C1C0",
"l. c #C1C2C0",
"z. c #C3C2C1",
"x. c #C1C3C2",
"c. c #C5C2C2",
"v. c #C6C4C1",
"b. c #C5C4C4",
"n. c #C5C5C4",
"m. c #C4C5C5",
"M. c #C5C5C5",
"N. c #C5C7C5",
"B. c #C7C6C4",
"V. c #C7C7C6",
"C. c #C6C4C4",
"Z. c #C4C4C2",
"A. c #C8C5C1",
"S. c #C8C6C3",
"D. c #C8C7C5",
"F. c #C7C8C7",
"G. c #C9CAC7",
"H. c #C7C7C8",
"J. c #C8C7C8",
"K. c #C7C9C8",
"L. c #CECECD",
"P. c #CBCCCA",
"I. c #D0CECF",
"U. c #CDD0CE",
"Y. c #D2D2CF",
"T. c #CECFD0",
"R. c #CFD0D1",
"E. c #D3D4D2",
"W. c #D9D7D3",
"Q. c #D6D8D6",
"!. c #DADBDA",
/* pixels */
"m a v I l i v.g v i 0.I @.g l v =.n E 5.v n j 1.i n v E v 5.v 0 l l._ 7 E E v g v n n v 5.v n j 5.i n v E v 5.v 0 l l._ 7 E E v ",
"A.a j k _ n m U j g @.I g l.l.g _ l a v I a _ I v I i _ v L._ g _ y.v v 5.j a =.g l.g g v I a _ I v I i _ v L._ g _ y.v v 5.j a ",
"a _ q I 0.a g y.l l v a j I a m I l t.m j l.v l I E _ 5.v , l.5.0 B.g _ _ =._ m n l _ 5.m j l.v l I E _ 5.v 2 l.5.0 B.g _ _ =._ ",
"+ A.b 7 I v n g U y.v g I g l l y.5.e =.g I g E 0 a z E E a g l.u v v v n E g 0 a n E u =.g I g E 0 i z E E a g l.u E v v n E g ",
"y.m l U v g l c.0.0 l _ _ g I y.5 =.E m g _ 5.v a 5.v u B.v v I E c v e E u =.E a n t.n E k _ =.v a 5.v u B.v v B E c v u E u =.",
"0.0.a =.q 0.v l n I i =.n g I l.u i _ g B v g g n E t.l 5 u ! _ a m.v i v _ =.m l a g ! g I v g g n E t.l 5 u ! ! a m.v i v _ =.",
"0.m a =.g n y.B.5 5.=.n g v e u E u I g n _ E 0 E 0 B._ =.I 5._ v v ! E g B.v u g i n B g n _ E 0 E 0 B._ =.I 5._ v v ! m g B.v ",
"0.U =.I l.6 g g 5 v 0 y.@.0 I =.0.e B.g E E E a l l._ v g 0 $.! f i B.E v E g.@.i _ g 5.g E E E a l l._ E g 0 $.! f i B.E v E g.",
"I @.y.n u @._ 0 _ l.a j j 5 m @.v m a E l v _ : l 5.E g v g E t.! v a m.n a _ 5.2 a _ g E l v _ : l 5.E g v g E t.! v a m.n a _ ",
"6 e l j 6 E 0 e g q 5 E 5 I =.7 J.g B g P.0 =.i _ E i l.v k E i v l e 5 B.a l $.u Z.q 5.g P.0 =.i _ E i l.v k E i v l e 5 B.a l ",
"c.n m a l a I =.b E I a v.v j u m l a c.7 0 : i i q E _ I i g u =.n v I v 5.g a i i a e y.7 0 : i i 0 E _ I i g u =.n v I v 5.g ",
"e l y.l m =.7 m g a m u u , g 5.q a B B.g I 7 l I B v g a g g q v l i n u i 5 g =.q a B B.g I 7 l I B v g a g g q v k i n u i 5 ",
"e a S.5 i =.=.n q j v a n g =.a E i u g a l B.l 9 S.$.v g _ I @.n q j v a n g =.a E i u g a l B.l 9 S.$.v g _ I @.n q j v a n g ",
"v v a j < q E < q g l g L.i q 0 I 5.,.9 v.a g n l u 5 v a a i E < q g l g L.i q 0 I 5.,.9 v.a g n l u 5 v a a i E < q g l g L.i ",
"t.I 2 u n 5.B.* Y.P.0 =.j g J.g q l e I 0 0 $.a u E.g a e I I l.* Y.P.0 =.j g J.g q l e I 0 0 $.a u E.g a e I I l.* Y.P.0 =.j g ",
"& g l._ O m g g u q u =.g v u 5 g P.m u k l.i E l.q e l.9 0 v g g u q u =.g v u 5 g P.m u k l.i E l.q e l.9 0 v g g u q u =.g v ",
"u 0.7 ; v l.5.7 q l.@.$ v E _ B.,.0 g 0 I u t.0 6 u =.i E y.I E 7 q l.@.$ E E _ B.,.0 g 0 I u t.0 7 u =.i E y.I E 7 q l.@.$ E E ",
"Z.Z.a l : y.& 0 J.j I u l a ; l._ l J.J.i _ B.q E.5.m.< i 0 _ - 0 J.j I u l a ; l._ l J.J.i _ B.q E.5.m.< i 0 _ - 0 J.j I u l a ",
"; : q L.% e v g i L.0 a v.! 5 n v _ 9 v 7 v E ; _ =.i 5.B u g j g i L.0 a v.! 5 n v _ 9 v 7 v E ; _ =.i 5.B a j g g i y.u a =.v ",
"5.% v : v v u , g I 7 g L.g 9 i I a 7 n l n i v u g i a 0 v v a , g I 7 g L.g 9 i I a 7 n l n i v u g i a 0 v v n , l m 2 g i v ",
"g 0 n g u _ U 0 v.e I O n 0 E u y.i 0 g _ 0 j c.v I u J.B.a a @.0 v.e I O n 0 E u y.i 0 g _ 0 j c.v I u J.K.g 0 _ g l.u g u u i ",
"Z.l u g u u 0 j g u g G._ n 0.7 $.g _ $.m y.B B.5 e u w u u 0 e j g u g G._ n 0.0 $.g _ $.m y.B B.5 e u w u u 2 E 0 i i g i v l.",
"a j j =.l 9 v n v d 6 e 6 & g 9 i a a v > g q u n B.0 v.J.l 5 v n v d 6 e 6 & g 9 i a a v > g q u n B.0 v.J.l 5 E _ 7 j U j j i ",
"E q # j m o j i 5.0 E v 9 v.5.E I I U.P.. g u B u E., a a u , v i 5.0 E v 9 v.5.E I m U.P.. g u B u E., g a 0 l I v % b l # 0 E ",
"l.* q J.& e L.i @.l.j E e p 5 z k u O v y.=.n e l u j =.g u g G.i @.l.j E e p 5 z k u O l y.=.E e l u j =.a g $.g l.g & B.u & l.",
"- E v u L.0 v g i > G.q 5.u e n 7 I l.9 6 6 a _ 5._ 0 7 L.E a g g i > G.q 5.u e n 7 I l.9 6 6 a _ 5._ 0 7 E.g =.- n q J.u x E - ",
"p 6 $.B., u 5 J.e @., I u E G.g l.v 5.a e b r n l.- l l.u g a 7 J.e @., I u E G.g l.v 5.a e m u n l.- l l.0 v g G.6 a < y.5.6 p ",
"v - 0 m i l , S.< 0.5.J.i * 7 l 7 l - a J.0 - v ; i 9 u u 2 l 2 S.< 0.5.J.i * 7 l 7 l - a J.0 - v ; i 9 u u : l I e g u E 0 - v ",
"l g g 0 & v 7 u x 2 a , i 6 _ E * i v.0 c.g 2 E y.5.E : 5.g 0 e u x 2 a , i 6 _ E * i B.0 c.g 2 E y.5.E : l.=.; =.a g - 7 g g l ",
"0 q , a m , a g Z.@ L.v =.P.< I i 0 j 5 5 7 v : q q 6 5._ e 5 i g Z.@ L.v =.P.< I i 0 j 5 5 7 v : q q 6 0._ 7 q e 7 5 E a , q 0 ",
"G.T.O _ v i _ j b e : a 6 n 0 B.n j k g E l.e n 0 L.v g u y.g I j b e : a 6 n 0 B.n j k g E l.e n 0 L.v l u v.n b E g l _ O T.G.",
"l.E u 6 v 0.l.g u q J.I 0 n =.a i $.g m e v.E.B : A.!.B.< E E 5.g u q J.I 0 n =.a i $.g m e v.E.B : A.!.B.< E a u n v v 6 u E l.",
"G.5 l.0 6 0 0 5 E L.6 6 - l $ g a 0 i 5.i 0 6 0 6 l.0 u - g e 0 5 E L.6 6 - l $ g a 0 i 5.i 0 6 0 6 l.0 u & l a i , u q 0 v.5 G.",
"< 0 9 - n E _ F.6 5 6 g h Y.E u p 0 y.=.@.a B.E.q 2 S.a a l v _ F.6 5 6 g h Y.E u f 0 y.=.@.a B.E.q 2 S.a g l a E 5.a l - 5 0 < ",
"m B.v u e 0 - g g _ L.y.m c._ g j I - I v.i v.2 v.u < a g < e - g g _ L.y.m c._ g j I - _ v.i v.2 v.u < a g ; a : u q a 0 v B.m ",
"0 u E _ % L.0 5.m.0 5.0 ; a > u v 5 j : 0 @.v.a 0 5.7 @.a 9 v.0 5.m.0 5.0 ; a > u v 5 j : 0 @.v.a 0 5.7 @.i 0 @.0 _ 0.; E B i 0 ",
"E 7 I 2 i m @.c.u 5 B.g : B.a 2 0 n y.=., g.% i 0.n , 7 y._ m @.c.u 5 B.g : B.a 2 0 n y.=., g.% i 5.n , 7 v.5.v 5.l.g g 2 I 0 E ",
"u * E l x a a l.g : !.a , n > n t., l P.; l y.Z.0 @.P.5.- g i a l.g : !.a , n > n t., l P.; l y.v.0 @.P.5.* g u l n 0 g l E * u ",
"q 5.a u 5 g u I u q - w Z.n a i 2 B.u ; $.v.% 7 a.5 g 5 g u v i I u q - e Z.n a i 2 B.u ; $.v.% 7 a.5 g 5 g a v n v v 5 i a 5.q ",
"v 0.g 5.i s O v _ _ 0 # E.g 0 a 5 g v 0 =.u E a < 6 c.l v t., @ v _ _ q # E.g 0 a 5 g v 0 =.u E a < 6 c.l v F.O g a s u =.j 5.v ",
"O +.i g Q.t g l.l F.!.+ g , j n _ 9 i _ y.0 g y.5 i a E < l i g l.l F.!.+ g , g n _ 9 i _ y.0 g y.5 i a E , i a 0 e 0 E.x u d.O ",
"! 0 _ i g , j E 0 5 u r q Z.c v a g 0 U.E @ v P._ n l ; v J.0 g E 0 5 u r q Z.c v a g 0 U.E @ v P._ n l - v E.v 0 u 6 a i _ 9 ! ",
"- 0 0 7 u a 5.g n a g.a J.; B , @.l.u a i u i 0 7 _ l.; 9 l i $.g n a g.a J.; B , @.l.u a i u i 0 7 _ l.; 9 n u a _ i g 6 q 0 - ",
"l.9 u 5.0 e & E u 5 5 I f v v 0 P.2 q a 0 i y.< ; 5.v l 2 g u - E u 5 5 I f v v 0 P.2 q a 0 i y.< ; 5.E l , j i n 0 0 0 _ a 9 g.",
"_ 5 c.u a !.l.* l.u v i a v.I S.a i g @.E.g v > , i _ u u E l.5.* l.u v i a v.I S.a i g @.E.g v > , i _ u u _ u i a R.g q v.5 _ ",
"i 0 6 u 5 B 5.- y.g 5 E 5 j 7 , u l v g u q B i F._ , d n l B _ - y.g 5 E 5 j 7 , u l v g u q B i F._ , d E _ _ 0 v _ 0 y 6 0 i ",
", j g _ v.9 g n n % i 5.E : a.v.5 l a u 5.u a 9 0 E u u c e 0 g n n % i 5.E : a.v.5 l a u 5.u a 9 0 E u u g 9 a u g 0 5.@.a v , ",
"v 0 5.5 u 0 i 0 B.=.0 5.0 5 g l.v _ a E.l.v u B.e B.0 j u g 5 i 0 S.=.0 5.0 5 g l.v _ a E.l.v u B.e B.0 j u v : 0 E g 8 > v ; E ",
"; e e - v.v i H.5 $.Z.g v v.0 g 1 5 n 5 q g E , c.a n _ u g a i H.5 $.Z.g v v.0 g 1 5 n 5 q g E , c.a n _ u a e u , E J.- v 9 B.",
"E a J.5 I E _ v u i i ; e e - v.v d e 2 a g y 0 E i , 7 0 q v =.v u i i ; e e - v.v d e 2 a g y 0 E i , 9 0 7 j B.v 6 z q i l u ",
"u 5 - 0 k < i E g a 5.E a J.5 I E _ y.u =.a q l.j _ m > _ a 0 u E g a 5.E a J.5 I E _ y.u =.a q l.j _ m > _ a a 0 i t ; _ > v a ",
"J.d., v.v = E g F.a v.u 5 - 0 k < u u , Z.0 E =.a E 0 v u u 5 E g F.a v.u 5 - 0 k , u u , Z.0 E =.a E 0 v q e u v k v., v _ 7 5.",
"b l - v 5.v v & 6 0 e J.d., v.v = g v v., 5 7 9 _ _ 5 G.I I $.l & 6 0 e J.d., v.v = g v v., 5 7 9 _ _ 5 G.I E v.i 6 q 0 =.v a E ",
"i 9 5.g v l 0., B.z u b l - v 5.v v 0 e E.v.F.9 q i l.E 0 0 g 0., B.z u b l - v 5.v v 0 e E.v.F.9 q i l.E 0 7 i _ 6 0.i 0 7 0 - ",
"= g 0.g k v 4 =.y E =.i 9 5.g v l L.J.u % < I a v v   , 2 j a 9 =.y E =.i 9 5.g v l L.J.u % < I a v v   , < j u =.i a 7 5 d.5.W.",
"y.g @ B g u g ; 5.5.f = g 0.g l v 4 9 i Z.l.u L.v % w E v k 0 a ; 5.5.f = g 0.g l v 4 9 i Z.l.u L.v % w E v k 9 5 u v P.0 t.7 , ",
"B.u 0 u g 0 I 0 _ & 0 y.g @ B g u a a I g g , 7 5.u R._ - =.a I 0 _ & 0 y.g @ B g u a a B g g , 7 5.u U._ - l.5.n n u 5 E I a L.",
"5 u u l.E l u B a u m v.0 ; e v.5 E - y.a a 5.u v u & u _ e E u v g 0 b l.0 ; u y.7 I ; y.u g I i v 0 * d I 0 E i e v n E , u a ",
"5.8 0 5.P.u a 7 g i 9 , - G.g =.u J.v 0 v l 0 E.: n v n _ i g v 0 i g 0 e 0 l.q _ g _ l i i t.i l.0 _ a 0 a e l i i u J._ d a a ",
"B a l.i i g i @ v t - g 0 5 a _ E 9 0 g 0 _ > 9 5 d 5.i 0 I.E v u > g 9 i x g 0 0 5 a i a u 0 i l a 0 0 l > s v ; u a a u v.a B ",
"< % e 0 a E a v.v v I 7 i n g g 6 =.0 _ a 9 d v : y.l _ u 7 a 5.u , E @._ a l.q 0 E 0 0 y.9 @.0 a a n g 6 g +.d G.p E a 0 e % < ",
"5 g 7 q g g ; B.i 5 6 g O : t.u 6 J.g g 0.$ G.l i v v v +.i I g 6 l a 2 l.a 5.q m _ u 0 y.e L.u 0 I e X u q 5 u B.< p l e 6 g 5 ",
"9 5.g a @._ - g g g E < q _ q g 7 u 1 i 0 0 0 v B , g a 0 q 0 t.g i a g.0 v 0 u _ u 0 5 g 5 0 7 a u v a , g v a v & E 9.a g 5.9 ",
"g > 9 k O g _ > % Q.u E g m._ v , u I i i 0.u z y.> E.g v.a g - 5 F.3 , l._ m 0 g.u @.g a j I * v v m.v v 0 Q., - E l + a 0 ; g "
};
