/* XPM */
static char *_84ae10a0800497def07661d394744fawrN44wApgrdu8oPx[] = {
/* columns rows colors chars-per-pixel */
"128 64 175 2 ",
"   c #473B1B",
".  c #4A3C1D",
"X  c #473B23",
"o  c #4A3D25",
"O  c #463C2C",
"+  c #4B3D2D",
"@  c #503F2D",
"#  c #473F33",
"$  c #4D3F31",
"%  c #513F30",
"&  c #4E4027",
"*  c #4D412D",
"=  c #514325",
"-  c #52432D",
";  c #58472F",
":  c #57492E",
">  c #59492E",
",  c #4E4332",
"<  c #4F4934",
"1  c #4E443A",
"2  c #4E483C",
"3  c #534534",
"4  c #594634",
"5  c #554935",
"6  c #5A4B35",
"7  c #534639",
"8  c #594739",
"9  c #554A3B",
"0  c #594A39",
"q  c #5A4A3D",
"w  c #5A4B3D",
"e  c #58493E",
"r  c #5B4D3C",
"t  c #5B4C3D",
"y  c #584E3C",
"u  c #594C3E",
"i  c #584D3E",
"p  c #5D4D3F",
"a  c #5C4E3F",
"s  c #5B4C3C",
"d  c #5E5136",
"f  c #57503F",
"g  c #5D513D",
"h  c #614E37",
"j  c #604E3C",
"k  c #605336",
"l  c #62533D",
"z  c #6B543B",
"x  c #4E4A44",
"c  c #4F4E49",
"v  c #514740",
"b  c #524A41",
"n  c #574B41",
"m  c #554D43",
"M  c #5A4D41",
"N  c #594E40",
"B  c #5A4F40",
"V  c #5A4F41",
"C  c #5B4F41",
"Z  c #5A4E42",
"A  c #5A4F42",
"S  c #5A4F43",
"D  c #5E4F41",
"F  c #5E4E42",
"G  c #5B4E42",
"H  c #544E49",
"J  c #594F49",
"K  c #565045",
"L  c #585141",
"P  c #5B5343",
"I  c #5F5140",
"U  c #5F5041",
"Y  c #5C5143",
"T  c #5D5143",
"R  c #5F5042",
"E  c #5E5043",
"W  c #5E5343",
"Q  c #595146",
"!  c #5D5145",
"~  c #5D5244",
"^  c #5E5344",
"/  c #5F5447",
"(  c #5D5747",
")  c #5D5244",
"_  c #5F5947",
"`  c #56514A",
"'  c #5B5248",
"]  c #5C5148",
"[  c #5C544A",
"{  c #5F584D",
"}  c #5C5551",
"|  c #5E5952",
" . c #624F41",
".. c #605240",
"X. c #615240",
"o. c #605042",
"O. c #605143",
"+. c #625342",
"@. c #655242",
"#. c #605442",
"$. c #625247",
"%. c #605546",
"&. c #615647",
"*. c #645545",
"=. c #625444",
"-. c #695645",
";. c #655945",
":. c #6B5A45",
">. c #605448",
",. c #625748",
"<. c #62564B",
"1. c #655549",
"2. c #655648",
"3. c #675749",
"4. c #66564B",
"5. c #63564A",
"6. c #695749",
"7. c #635849",
"8. c #64584B",
"9. c #62594D",
"0. c #63594F",
"q. c #615A4F",
"w. c #65594C",
"e. c #675C4D",
"r. c #645A4C",
"t. c #685A49",
"y. c #6A5B48",
"u. c #6A5B4C",
"i. c #685D4F",
"p. c #6B5C4E",
"a. c #6C5D4F",
"s. c #6E5F4F",
"d. c #6B5C4C",
"f. c #705C47",
"g. c #715E4C",
"h. c #625651",
"j. c #655B50",
"k. c #675D52",
"l. c #675F53",
"z. c #675F54",
"x. c #645C52",
"c. c #6B5A51",
"v. c #685E53",
"b. c #6E5F50",
"n. c #6F5F54",
"m. c #6B5E52",
"M. c #655E58",
"N. c #695C59",
"B. c #715F51",
"V. c #6E614D",
"C. c #746047",
"Z. c #73624D",
"A. c #79654D",
"S. c #666054",
"D. c #6F6151",
"F. c #6C6254",
"G. c #67625A",
"H. c #6C635A",
"J. c #6E695B",
"K. c #726454",
"L. c #796653",
"P. c #756855",
"I. c #7A6A57",
"U. c #7B6A54",
"Y. c #726758",
"T. c #726659",
"R. c #746A5B",
"E. c #7A6C5B",
"W. c #7F715F",
"Q. c #6D6862",
"!. c #766C62",
"~. c #796D62",
"^. c #7C7164",
"/. c #7E736B",
"(. c #817465",
/* pixels */
"+ + + $ , + + + + o * 7 7 9 , + + + O + * , + * # O + O + , 1 O O * 3 - 3 4 & + + X + + + + o o . . . + + o   X 3 * , , * , + - 4 3 , + - + + $ + + + + + + + O + 7 + + O O * + + + O + + + + + + + + + + + + O O O O , , + + + + O X X o + + O $ 3 + + + + 3 3 ",
"3 + * t =.a 3 - * * #.*.t E t + * , , 7 9 e , 5 i # + + + 1 7 1 7 - - * - - - * 3 5 5 + + + , 3 * 3 3 3 * + o - 3 + 3 , * , , 0 I.y.+ + - 3 3 , , 7 9 Z t , O , , ~ , # Z y * * , + # # + + + + + + + + + + + 7 Z i L / L , # # , 9 , o + * 7 7 , 5 3 5 E ..E a ",
"t , ..s.n.u.y...0 *.D.Y.7.*.7 , 9 i Z ~ ~ Z 7 9 / Z , + , m [ ! ~ 5 9 9 5 3 0 E 5.v.5.3 + 7 D E Z >.>.E 5 D w w w * * , 1 b 9 9 0 @.3 @ + 3 9 Z ' j.0.m.k.0.Z i 7 E , i e.L 7 8.d.Z , 9 + + + + * 3 + $ $ 3 , y w.0.0.z.k.7 7 7 e >.>., - ..D.5.w w  .5.m.s.d.m.",
"s *.y.s.E.*.t =.7 E *.8.*.~ Z S S [ [ e 7.w.*., >.*.W 5 7 ~ S [ [ 3 =.*.D 0 5 E =.4.~ $ + 3 D *./ >.*.t t u.~ =.e + 3 , 1 x 2 9 t 4 3 3 - s E m.H.H.v.H.H.H.H.H.Z 7 7 , 7 ~ w.F.Y.D.7 3 , + , 9 9 7 t D w D g 3 3 ! v.H.k.m [ { [ [ ~ * 4 K.E.m.=.D D d.u.*.*.8.",
"g l g g #.t m.F.F.m.E 5 w ~ [ ' [ { <.7 g 7.~ L ~ >.w.E 9 >.[ ~ Z e *.5.*.a s s g ;.t 5 * - 3 D m i 5 , i ~ ~ *.t 7 5 7 , 1 2 m E 3 3 3 3 9 m.H.H.H.x.H.H.j.j.H.~ 3 t F.F.F.R.Y.Y.T.D 3 3 5 g D.D t E $.$...a 5 ~ $./ >.Z 0.k.k.h.<.9 - 3 d.s.6.=.=.5 -.*...y 3 ",
"*.D D t 9 e.R.E.E.R.V.s.=.5.[ ' [ j.<.e t L Z 9 7 8.*., 9 <.<.Z L ~ =.u.5.5.*.L Z V.s...+ 5 L ~ [ e * , i *.E =.*.8.g 7 7 1 7 *.0 3 5 5 3 0 R.H.G.G.G.Q.H.M.{ F.D 5 t Y.T.R.R.Y.T.T...w y.=.=.*.t 7 5 3 4 3 5 7.!.~.7., >.H.H.k.0.t , - - K.K.y.*.D 3 *.*.*.*.>.",
"T.m.$.9 g Y.E.^.~.R.K.P...$.[ { 0.>.9 ~ >.*.8.>.5 s 3 , 9 ~ S i ~ t D u.s.u.w.>.~ ..d.*.9 { 0.H.v.*.W 7 7 t t t w w , , i Z t #.-...0 5 3 0 m.0.F.e.e.u.8.u.7.L 3 5 E Y.!.R.F.Y.F.5.9 =.n.T.T.D...5 ~ ~ Z e i H.!./.~.k.>.H.H.z.g * 5 s - ..B.y.5.=.3 0 y.s.F.Y.",
"T.T.c.D K.K.E.^.^.~.8.l 5 D / ~ >.d.5 u.n.j.v.m.3 9 ~ J e E [ m m b e m.w.w.r.{ [ ..s.=.w.z.z.H.m.>.w.y * , 3 5 , , 7 7 # 1 { E *.s.*.#.5 5 7 7 a 8.*.e Z 5.*.P f , t T.!.T.T.m.a *.*.=.F.Y.Y.E.m.9 w.{ [ 0.{ H.!.!.!.!.j.>.K.5., 3 D >.Z 7 a ..=.D w a D.K.Y.T.",
"K.m.=.D W.E.K.E.T.Y.5 5 =.5.~ E L 7 E m.n.n.F.m.0 d.u.4.L 9 [ S m ! i / >.8.e.S./ g *.5.m.k.v.r.e.>.3 7 9 E W , , e ~ i 7 [ } x.>.g ;.;.s , , 7 *.*.=.m.H.H.m.F.r.7 5 u.!.K.8.3 6 -.y.5.d.F.R.R.*.e 7.| } | [ <.R.!.~.R.E.s.5 7 5 5 *.w.Z 7 3 0 w w a ..m.K.K.R.",
"V.;.5 g 5 s *.y...a 5 E $.$.>.~ 7 7 g m.m.e.*.9 5 *.5.<.E 7 S ' S ! m 7 8.e.r.r.L t E =.w.e.7._ P , , / w.w.8.9 e S [ Z e { [ j.E ;.;...*.Z 9 5 7 7 D S.S.H.S.H.H.Z * a K.*.s 6 4 g s t W W *.D.w.t e <.0.0.Z e K.Y.m.D.T.*.7 =.a g 5.v.7 , l s.T.s.0 s 6.u.m.K.",
"..l d.Z.5 3 3 + + 3 a $.$.<.~ ! Z E E *.*.9 7 9 t E ~ [ L 5 t / E ! 9 9 E y.d.7.L a *.E ~ *.Z 9 , , t k.z.S.j.! 7 E Z 7 m 0.0.e.t d.y.*.k.e.7.*.~ 7 L S.H.J.H.H.J.>.3 g 5 , l - -.K.d.t 5 t F.~.^.~.m.*.l l *. .0 t s 4 0 7 *.y.0 s *.u.w 5 -.K.E.E...*.T.v.*.*.",
"-.-.-.-.3 3 3 3 % j $.4.4.$.~ ~ Z E E e 9 0 a =.*.~ ~ ~ t 5 #.*.*.8.y.;.s #.y.u.=...*.*.=.=.5.=.t 0 w k.x.S.z.<.7 7 7 , m 0.[ e a a a S F.F.k.k.*.t ! S.S.H.H.D.w.9 5 ..7 , * * d.R.R.D.#.E E.~.~.~.~.R.j -.g.s.d.@.0 - 3 ..s.y.s 4 ..D 4 s ..s.E.E.K.*.Y.u.;.g ",
"*.a a a 5 5 5 3 0 -.*.=.D D ..a *.Z 7 Z Z t *.d.e.;.E W E Z >.<.0.[ *.*.s 5 w a ..u.8.y.y.8.5.=.D 9 3 t 7.e.e.E ! m S e , e t ..:.s 9 w.F.F.H.e.>.e >.F.F.F.d.0 5 s t e e [ 7 5 K.Y.Y.D.;.*.E.E.E.E.R.P.*.g.p.g.K.g.-.3 0 u.u.*...3 a 0 8 4 3 a s.P.V.y.u.m.y.;.",
"s.y...j a 5 5 3 a -.y.u...d.s.d.-.m m S m D y.u.;.;.d.;./ S J ' [ ' ~ *.t 0 3 3 7 *.u.u.y.p.s.y.E t E ~ L *.*.t Z <.j.j./ 7 w 0 h 0 w m.H.F.H.e.~ m e *.d.*.0 j j 0 L { 0.z.{ 3 V.R.Y.Y.d.9 8.d.D.R.K.V...B.K.Z.L.L.d.4 l u.y.8...3 0 D  .@.$.a 3 5 *.K.m.n.K.E.",
"K.K.w D =.=.*...=.=.D.K.K.s.K.K.=.S m ' Z D u.y.s.d.u.7.[ { ' L S S S [ E 7 7 $ $ 3 *.y.y.y...0 7 8.m.k.7.7.{ ~ 7.>.j.x.x.! , 7 s 7 L v.F.F.F.d./ , , * 9 g s *.Z m [ 0.k.x.j.1 a d.K.K.V.5 9 ..*.;.g 5 a s.g.Z.A.Z.a 3 l *.*.y.*.8 *.-.y.p.s.8.0 - s 8.m.m.D.R.",
"*.*.w D u.u.u.u.u.y.s.d.y.y.u.u.5.~ m Z Z 5.u.m.K.m.m.8.8.j.w.[ S b b [ E 3 , $ $ + 7 *.D =.0 5 y 8.w.e.e.e.w.*.~ 7 [ k.0.S i t s 9 0.v.F.m.m.w.E # , 7 9 7 7 a ~ ! 0.j.k.r.j.m 5 #...a y E d.*...#.9 7 5 3 9 ..;.E a E t s *.s.@.0 d.g.p.B.B.*.s l 0 w K.K.K.m.",
"D 5.9 E s.u.u.u.y.y.u.V.d.y.m.s.y.8.a w t u.5.m.D.m.m.y.y.u.u.e.j.' b ~ Z w 3 3 7 9 t *.Z S Z y 3 *.w.e.k.e.e.>.~ e Z w.Z m [ 9 0 E w.v.F.m.d.w.t 7 ~ >.w.>.0 s ~ 0.0.j.j.r.j.! 3 *.#.3 L e.k.~ #.*.a t , + , 9 t >.j.k.>.9 0 g a s d.g.s.6.t 5 t ! / D =.*.5.E ",
"v.F.5.D y.u.s.m.4.4.m.m.s.s.D.Y.u.8.*.*.*.y.d.y.K.m.u.y.s.y.y.u.m.m.>.[ L ~ *.*.*...e S ' ' S S 7 ~ 8.0.x.z.j.>.' S m 0.e.r.>., * L w.k.m.d.w.0.7 ! 0.0.{ j.Z 3 t *.7.k.x.k.k.[ 7 l 5 E S.x.j.L #.V.s ..5 + , >.S.z.k.z.0.E 0 0 =.g ..*.j a ..a ' | x.k.<.7 e 7 ",
"H.H.>.t y.u.s.s.u.5.u.K.K.K.Y.Y.Y.e.*.;.*.*.*.d.d.u.u.5.>.E E ~ >.8.w.m.m.Y.Y.D.d.a t ' H H S S b Z y.w.v.H.<.Z ' [ m e.e.k.7., + i 7.m.m.w.>.m K ' ' { j.j.Z 3 5 g / k.x.j.0.{ 7 3 9 0.S.x.j.[ 5 :.a 0 0 + e k.S.j.H.H.j.=.7 y.s.y.s 3 0 y.*.E ' x.H.H.v.7 m j.",
"H.H.Z 3 D E =.y.*.0 0 m.D.K.F.D.Y.e.7.7.[ 0.7.7.*.5.y.>.[ [ { 0.0.' >.F.Y.Y.Y.F.D.-.w.' H H [ [ ' 7 w u.>.e , e ! K L 7.e.r.L 5 5 3 3 #.8.d.L m [ [ { j.k.k.*.+ 5 t L 0.j.{ j.0.m , 0.x.j.{ 0.0.9 l -.0 0 5 Z j.z.| k.z.k.=.E K.Y.s.g , E >.D.K.{ h.z.G.k.e <.v.",
"m.~ , e Z w 3 t E 0 5 y.m.D.d.d.m.e.S.S.k.0.e.F.*.5.y.>.0.<.j.j.0.! >.F.Y.Y.F.F.F.d.8.' ' ` S S m 7 Z =.E 9 e S ' ' K ! / i L i 9 9 s ..~ / *.>.<.<.j.k.k.z.[ 7 g W e m L m ~ [ L , 7.j.{ | | j.m y.*.0 *.s t k.z.{ j.k.k.t 5.K.K.K.E 7 <.k.w.=.j.j.{ j.<.Z >.v.",
"0 3 9 7.[ w 5 0.k.8.a K.V.K.K.K.m.d.d.S.x.7./ e.*.y.y.5.>.*.w.<.~ t 9 8.Y.Y.D.F.7._ / m S ' S m e >.j.m.D.>.S ` ' ` ` b e y s 7 Z ~ >.m.d.t t m.v.v.j.<.j.0.m Z * i [ , 5 s 3 3 3 5 t <.[ { | | K ..*.e.Y.m./ *.m.z.{ e.E 3 s.K.K.s.D [ j.x.0.t D k.| x.0.w a =.",
"7 0 Z ~ >.a ..m.0.D.d.d.;.s.s.s.m.8.F.x.x.7.r.k.5.u.5.8.>./ 8.>./ ! Z 9 / w./ / / / ! S 2 e e e >.v.N.n.D.*.! ` H ' H m ~ g 9 *.k.w.m.F.D.t t d.w.8.w.~ ~ Z 9 t t m.H.w.w l - 4 3 9 9 E 7.0.h.{ L s *.R.Y.R.K.E ..8.7.*.3 3 y.V.Z.8.D w.x.x.j.7 s 8.w.0.*.t 8 8 ",
"*.0 i / ~ y.y.F.m.u.8.y.V.V.d.y.s.y.F.S.S.k.S.k.u.s.y.8.8.8.8.;.E <.D.d.E / / ~ e m ' [ m + t u.[ x.N.v.Z e ! S H H H S 7 s 9 / F.k.m.F.F.L 7 i y 7 7 t t w 3 t D.H.H.Y.m.E 7 9 D ~ *.7 t 8.w.k.P s s.R.Y.D.B.s.3 s E s :.l l *.-...5.m.x.x.x.0 s w =.E a  .$.-.",
"-.0 e ~ *.s.8.u.K.*.s.K.K.m.v.m.d.s.d.H.H.k.0.j.m.s.5.5.8.*.t 3 t <.H.F.8.E / [ ! 5 Z [ 9 #.t w.h.j.>.7 7 7 ' ` ` c x K 9 s 9 L m.v.v.v.H.' 7 a t t L / >.g s d.S.z.H.H.H.k.g W k.S.F.7.s s l *.#.t Y.K.K.K.s.K.0 *.l -.Z.L.d.*.j 0 $.v.j.j.k.0 3 w Z E =.y.p.p.",
"-.s ~ <.>.>.w.E 9 7 =.m.T.m.F.m./ ~ d.Y.F.m.j.w.m.u.y.a =.D 7 * , k.H.D.d.g *.>.<.t 7 e S H.7.y <.m e S [ ! K S H H K b , , 9 i e.F.m.F.v.Z >.v.N.z.N.k.8.s g 7.0.x.x.H.H.k.g E m.F.H.F.;.0 #.s 6 s d.P.E.P.K.K.#.a l Z.Z.A.L.L.A.L.y.u.m.j.>.7 a 5.=.E D p.B.p.",
"d.a E 0.k.0.k.=.0 w w w 8.K.d.~ [ { { d.K.D.d.s.u.D 5 0 s.m.5., , 0.F.w.W y 9 [ <.[ y * w.T.T.>.* , S { { { ' ! ' S 2 2 2 e t 5 #.D.D.V.D E H.H.M.M.G.k.7.3 5 9 x.x.j.z.z.w.s , [ k.k.F.D.w D L L ! L ..;.V.K.P.y.3 *.A.Z.L.L.L.L.A.j y.u.=.5 0 *.5.>./ w $.m.6.",
":.s ..u.>.>.>.9 9 E ~ >.~ w.e.[ [ { [ ~ t s g ..5 5 5 ..K.m.s.5 7 7 ! ~ / [ ~ >.w.w...s d.F.H.z.5 , Z 0.j.{ [ e 7 e 2 S K [ [ S g 8.#.8.*.=.z.k.S.S.S.z.m.7 t Z Z 0.k.k.k.w.t * , ~ d.D.F.#.0 ! ' [ [ 9 ;.y.d.*.s l @.A.A.A.L.A.A.;.3 u.s.s.a g 5.5.>.! 5 s -.p.",
"l s -.6. .w *.s t 8.w.D.d.Z ~ 0.' [ [ <.~ 5 0 9 5 5 0 *.D.s.s.5 Z [ [ [ [ ' ' >.u.E e 9 *.0.j.v.e., 9 [ 0.[ [ ~ 7 7 b S ` [ } [ s d.s ;.s.d.k.k.e.e.k.v.w.w *.8.>.e m w.e.W g y 9 7 ~ d.>.5 L S ! ' ! 9 d.E.;.-.:.y.*.A.U.I.A.L.d.3 ..s.d.Z...7 ..=.5.>.9 4 -.$.",
"6 l a w 7 3 7 0 ..=.*.y.*.a 0 *.0.<.[ [ Z w D E a 5 g *.y.u.D e >.j.0.[ [ ' ' / 5.! [ ! e g 8.w.*., 9 [ { [ [ L 7 e ' [ ' ' [ S 4 l d.s -.V.8.r.e.S.k.d.D g.8.7.w./ , s t 5 g F.H.v.m.v.>.0 E j.[ [ m 5 K.s.V.K.D.K.d.g.U.Z.Z.A.l * E y.s.d.g 0 0 =.*.*.e E E a ",
"l s 3 $ $ $ + + 3 7 8 a a a s 0 w D w.Z 1 9 $.4.*.0 *.s.s.w 8 Z m.z.{ [ ' ' ' ~ *.[ { ' Z ..8.~ Z i i ! ' { [ 7 Z S H ` ' [ { m 5 E E.-.4 ;.e.L 7.7./ a *.g.;.8.w.>.s 3 3 - y H.H.H.H.J.F.9 i <.0.[ m y d.y.K.K.K.m.K.s *.Z.Z.-.0 s a 5 s #.5 a =.5...0 5.F.u.u.",
"d.*.0 + $ $ $ + + + w y.y.*.=...a 5 0 7 9 9 E w.4.D s *.D s -.t k.x.j.{ [ ' S ~ E 0.[ S Z E { | x.| [ m J [ i m [ h.h.<.~ 5 7 i ~ 7 d.@.E 8.Z 9 9 g 5 9 e.d.g g =.5.g 3 0 0 s D.Y.F.H.0.t 7 7 ~ [ L 7 ..s.V.K.K.K.Y.K.w 5 g g 6 s -.d.*.5 3 ..d.8.j.w.w u.K.K.m.",
"s.d.0 3 $ $ $ + + + w 5.u.y.5.=.D 7 9 ! [ 9 , / w.D 5 9 e a -.E e.x.x.{ { [ Z e [ { 0.[ ~ E { | M.j.h.L S ~ , Z >.h.h.j.>.7 t ~ S e t 0 5.D.*.7 *.V.../ *.>.D 7 w *.*.5 a #.a a #.*.E / / >.E t t 7 g V.#.d.E.E.K.K.K.D =.*.*.0 a ..d.K.s.....8.w.v.n.E =.K.Y.K.",
";.*.*...7 $ $ + @ 4 a *.5.*.=.=.D t ~ { { [ 7 s 5.=.3 ~ [ e 0 i w.x.j.{ { L , e <.{ [ ' L t x.x.{ L i , , 7 , >.<.h.h.h.>.e ~ [ [ ! D a y.D.D.*.K.K...>.m.F.K.m.*.s 3 5 ..*.E l d.;.#.;.d.d.w.a 0 #.s s s d.K.K.K.s.g D >.5.5.w 0 d.p.s.K.-.5 t d.v.v.a D s.V.d.",
"F.R.E.R.0.7 3 3 4 s l -...=.a 4 s ! { j.0.=.s l g t 7 <.j.0.! 7 >.v.m.w.[ Z t e *.[ { { m 9 t ~ m * 1 7 b b , / F.w.w.>.i S ' ' ' ~ ~ E d.m.8.E *.*.u.0.D.F.Y.F.4.5.a 5 =.*.*...E a s *.m.v.m.E ..;.a $.y.g #.*.s.#.0 D <.>.>.*.t a *.d.g.y.5 6 a y.=.s 5 s -.s ",
"H.R.R.R.H.E 5 s ....s L.*.Z t 3 D 0.0.{ >.9 5 s * 5 Z 0.k.k.z.<.Z / / ~ ~ 8.*., e ~ >.Z Z w.8.Y.F.5 7 m S b 1 m >.j.0.~ Z ! [ ' <.E Z 8.m.d.*.t ;.=.n.w.F.Y.R.D.j.j.*.5 w a *.=...s 3 *.d.d.d.E *.0 *.8.y.*.6 3 D a s E w.w.7.>.E 5 5 a *.a s g 0 ..=.W ;.E l l ",
"F.R.R.J.R.V.s @.-.*.a 5 Z ' ! 0 >.0.{ { L - 5 ..t 9 ~ 0.j.k.v.N.~ , 7 ~ w.8.*.7 t 8.8.9 >.H.F.T.F.9 7 m m 7 7 <.<.S e >.m.[ ! ! P e E e.D.8.E t #.=.n.d.F.R.E.Y.v.v.5.5 3 3 w E E 9 7 a ;.8.;.s #.a ..*.l 6 V.d.y.s.*.w *.w.>.~ t g d.d.V.e.g 9 / ~ 0.0.e.7.l l ",
"8.F.R.R.R.D.g @.*.-.@.D [ [ ' Z >.>.{ [ i 7 *.m.e.g 8.8.~ [ 0.>.E s *.w.w.7.t t m.R.R.d.7.T.H.H.F.E >.7 5 , ! x.j.S m 0.k.j.[ e 5 *.*.5.8.*.E 0 s *.K.m.K.Y.E.Y.m.v.u.w 5 E d.E 7 5 Z 7 * * * E y.8...5 9 0 l d.s.m.8.7 e ~ ~ Z 0 *.Y.R.R.R.k.Z >.w.j.j.k.~ ..*.",
"I...;.Y.E.8.s *.-.-.-.=.<.' ' S *.8.8.>.9 *.m.z.H.w.5 4 5 i / ;.V.e.E 7.8.~ w *.Y.!.~.R.L H.F.F.;.L >.5 5 9 0.j.<.3 / 0.j.} h.t s D t D *.V...5 3 #.Z.K.K.s.T.T.K.m.s.a w 8.F.8.t L ~ ! < * * *.w.m.e.t S ~ t W s.*.w Z S S Z m 0 j Y.R.Y.R.R.d.a ..>.7.g #.Y.Y.",
"R.D.0 l d.s j -.-.y.*.D w.{ { >.0 a *.0 a 5.m.H.H.F.0 3 8.F.R.E.~.R.>.8.e Z D E T.R.~.D.7 *.d.8.#.*.>.L , e 0.0.e , / 0.{ { 7.>.~ ~ 0.m 5 K.K.5 s s #.d.V.-.K.K.K.s.*.0 *.8.d.d.t g ~ [ ! i 6 d.w.m.7.L [ [ [ L s 5 w Z b m m S e 9 *.K.K.F.F.:.:.: 5 i 5 g Y.Y.",
"H.Y.a : d l h @...-.a t k.{ { w.t l l 0 g *.m.H.H.F.E 5 K.R.E.!.R.R.7.>.Z Z w =.K.!.R.E t #.d.Z.d.w.j.w.e Z m.~ , 3 Z k.j.e.L >.j.z.v.j.e 0 E 7 5 s 3 5 4 0 *.a s a w 9 5.8.D.8.5 9 Z [ [ E - t 8.>./ [ ` ` [ ` i 5 t S m m S m S 9 3 0 s s 0 d.;.0 Z [ Z =.K.Y.",
"d.s.5.*.l 6 6 s a @.5 9 z.| { >.=.*.~ ~ *.s 8.m.H.v.j.9 ;.Y.R.F.7.>.D.~ S S S ! 9 y 9 e >.>.<.e.8.m.v.m.>.Z >.5 5 ;.D J $.~ 7 w.x.z.k.z.S + Z ~ Z *.i 7 , - - 3 s g E ~ w.u.u.g 6 5 5 g Z 5 - 3 w 9 ~ { J ' ' [ [ 9 0 ! S m S S w 3 3 9 ~ / E g 9 b ' { ' ! K.T.",
"I.K.8.~ S D ..*.a s 5 t >.0.>.8.y.5.w.>.8.*.w =.F.H.m.9 5 E *.t 7 8.m.E S ' ' [ t * 7 ~ ~ <.[ #.d.D.F.F.8.7 , 5 #.K.m.0 3 7 E v.H.z.z.H.[ , >.j.h.h.h.0.8.#.s ;./ t >.*.8.*.s 5 s t L 7 5 5 *.8.w.~ Z 5 0 y ! { j.Z 3 a e e L e 7 9 t t ~ ~ Z 3 9 S J ' [ [ w.Y.",
"K.d.y.>.~ ..d.-.0 *.6.6...W L K.d.*.w.w.v.u.0 3 *.D.e.5 4 5 3 $ 3 5.5.Z m ' ! Z t , 5 / ~ [ Z 5 6 8.8.;.y , 5 3 5 0 5 3 * t d.v.H.z.H.H.<.7 *.{ [ [ { 0.w.=.8.0.[ Z E ~ / 5 3 0 Z ~ ~ ~ 3 3 d.H.H.k.[ 3 #.;.y g g 7 m m 7 9 i 7 m ! { [ ~ E Z 5 9 [ ' ' [ [ S [ ",
"L.s.=.>.;.;.;.D 8.m.u.y.a E a ..0 ..y.y.y.y.e 7 i i y 5 3 + + + + E u.~ Z L g E *.=.=.*.*.D 9 t g / t 7 , g E t >.7.t 7 9 L H.k.H.H.v.z.[ Z [ { [ ! L 0.0./ x.{ S e , Z Z * 5 Z ~ ~ ~ ~ 7 - 8.m.F.m.m.0 s.V.5 s y 7 b S ' [ 1 3 L 0.0.0.*.~ E 5 3 3 5 j a t S [ ",
"L.d.~ m.D.D.*.*.w.w.>.D 5 s.K.*.7 5 *.;.d.*., 7 ! e 5 - + + + + + w E 7 , , 7 m.N.M.H.k.*.0 0 E 8.>.Z ! m #.;.~ F.Y.F.Z 7 [ z.S.z.z.z.z.Z Z { { ! 7./ *.>./ r.{ [ 5 9 D.D.y s L Z Z Z ! 9 - ..m.D.D.m.0 #.s ~ e.8.e 1 e m m , * y / L / *.y...E a 0 4 4 5 7 t d.",
"-.d.F.Y.F.F.m.a a *.w 9 3 *.E.E.H.g 5 5 0 3 , # # , *.3 + + + + 7 ..Z Z , , , v.H.x.v.m.i a ..g 8.8./ 0.7.g E D.Y.F.m.e 9 Z >.>.0.0.[ K , t 0.j.[ { r.t W W 7.{ / 5 E Y.R.e.5 L Z Z L ~ i - s m.F.m.d.5 3 0 w.j.j.E 3 5 3 W V.E 3 s *.D.Y.K.u.m.e.>.=.*.w.0.>.*.",
"8.8.F.Y.H.H.F.a 5 0 0 7 7 w H.R.R.R.F.=.7 * , , # >.Y.E + @ 5 s s.D m h.J v * t i 9 a s 3 s d.E e.F.w.7.8.9 t D.Y.F.d.7 9 5 4 * 5 t 5 , y y 5 L ! i g 3 3 3 W _ Z g e.F.R.D.9 Z Z t E E 7 @ 3 w.m.m.8.5 a w.j.j.j.>.4 6 ;.F.F.v.E 5 ;.P.E.K.y.F.w.w.~ ~ e.H.H.v.",
"F.k.d.K.D.D.*.s 0 3 $ 3 7 Z d.K.T.J.R.K.t 3 + + 7 F.J.e.5 0 ..;.*.7 b { [ ' 5 * * 9 Z E a 5 s E w.w.w.5.5.9 e w.m.F.e.7 5 7 s s 7 e 9 9 5 5 y 5 3 3 3 7 5 t W g 3 y.F.J.R.J.~ 3 5 5 5 s g 5 - ;.w.m.~ - ;.j.j.j.{ 0.5 6 s.F.F.d.;.* + 9 d.K.s.m.w.w.Z 7 *.F.Y.Y.",
"D.d.0 *.d.#.*.*.t 3 3 5 3 9 8.Z <.[ 5.5 0 a a 3 #.Y.J.H.3 D v.d.e./ / [ ' ' m , 7 S J J S a 3 - 9 *.;.*...3 9 e.D.Y.*.t ~ >.E 7 e J S ' i 7 9 t [ w.k.7.>.7.[ ~ 3 0 F.R.J.H.d., 5 5 3 #.l 5 4 W ;.W 7 6 *.0.0.j.0.0.5 6 y.d.m.d.y * , * 5 -.y.*.m.8.t 3 3 #.D.Y.",
";...l :.-.6 :.Z.t w 7 0 3 - E n e e 5 s -.d.K...8.R.J.Y.E $.N.v.*.5 5 f L S S , 7 ~ [ S ~ D * & * y g E D t t d.D.Y.w.>.m.k.0.m m m m [ i , 3 e.J.H.J.H.F.0.[ Z 3 3 / F.F.R.F.7 ..0 a *.l g 0 s y 5 9 l ;.0.0.w.[ m 0 4 =.Y.D.8., * * * + * 5 7 E ~ 9 l l 6 d ;.",
"4 6 :.g.A.A.z l 6 t s @.@.j s 5.w.d.D 7 *.Y.K.*...R.R.H.t e >.$.s s #.*.E w w 3 * 9 E t ..5 0 s * , 7 L 0.e.;.y #.y.5.m.k.S.x.[ y L e S m 7 3 ;.F.H.F.H.H.H.w.~ 0 *.l a F.F.W 9 s a *.=...g s , 7 ! Z l ;.>.;.g 0 [ 0.t t V.V.l 6 - * + + 3 w a 0 9 t l d.V.l 0 ",
"0 h f.A.U.U.:.h h $.-.-.d.d.l 8.m.d.D 3 d.F.5.$.3 t w.8.9 , , 5 s.T.Y.m.d.e 7 7 7 * 6 g 3 5 d.K.8.L t [ { r.e.y 0 0 8.F.j.r.S.0.y t t e S Z g *.F.F.F.F.D.F.e.*.0 -.:.4 E d.3 5 7 D =.a E g 0 y P 0.0.g g l s 6 g j.k.E 0 s l s ;.4 3 5 4 0 0 ..0 0 d.Y.D.*.*.*.",
"6 *.-.g.A.A.:.:.-.-.d.:.-.-.a *.m.m.E D K.D.s.$.- - 4 8 t w 3 s Y.H.H.H.H.~ 0 7 w 5 3 3 * * *.Y.H.7.E 7.{ { r.g a a *.Y.j.r.x.w.y g t Z 0.L 5 g 8.d.d.s.d.d.*.s 0 l z 6 s l 6 6 5 t =.E ..a 3 y r.H.j.P s C.l g a <.0.*.0 g s 0 6 6 s 0 s l 9 a 0 #.D.H.m.*.-.-.",
"l :.f.g.g.A.f.z l @.-.:.:.j 5 5.v.H.w.=.K.F.m.5.5 5  .-. .w 5 4 s.T.H.H.H.8.g 0 9 w w w 7 * s d.H.F.*.g ;.#.#.5 0 4 F.0.j.k.k.w.E #.g t 8.t 0 d.s *.:.V.#.6 - 3 0 l ..l #.l s 4 3 0 g D s 3 0 L { [ { [ Z s -.:.l ~ 0.j.m 4 s E ;.;.g 3 4 s w a s s D.F.F.H.u.*.",
"; h l :.g.g.:.g.d.l -.z l 4 0 8.F.H.8.s K.8.8.8.5 a ..6.6.0 5 - 0 K.T.m.7.t 5 0 0 a ..*.5 - 0 l V.F.V.l 3 0 a 0 5 5 R.F.[ m.d.*.7 5 g 5 3 s d.I.A.L.L.L.Z.l 6 0 #.d.d.8.8.*.*.g s 6 6 s * 4 : *.7./ P ! t ;.V.E.:.s [ j.m 5 E 8.8.*.s 5 6 5 9 0 6 - g d.d.K.8.5 ",
"- l 6 6 l :.h 4 h s -.-.l 6 -.*.D.e.9 - : 0 l l - h @.l l 4 4 * 3 5.Z...a a g s 0 s s 0 3 3 0 : 0 d #.s E Y.Y.#.5 *.(.Y.E t ~ 9 7 7 9 t g ..*.d.L.L.V.d.d.;.:.l y.K.m.D.m.m.m.u.*.s 6 : 4 g ..#.#.W E g *.L.L.F.8.#.#.>.6 s / >.*.g t #.a 5 3 3 - 0 6 g g *.g : ",
";.6 4 0 l j 5 3 0 3 3 l 0 3 6 a d.s - : 4 s -.d.-.3 - 0 s s s 0 a 0 3 - ..K.d.0 3 3 - 3 3 s s 5 3 - 3 7 F.Y.R.F.E E d.5 l #.*.E Z ~ 8.d.8...;.L.L.V.;.;.g g l l y.K.d.d.d.u.u.m.d.5 - 3 >.u.m.y.#.6 ;.:.:.d.d.e.7.;.#.g 6 5 ~ [ L t t W ~ 5 * + s V.Z.Z.d.d.d.V.",
"d.6 h E w.8.*.*.*.5.E 5 0 g *.;...6 l @.5.m.D.s.K.s 3 0 ;.w.w.0.E 3 , ~ v.H.H.t + - g ..~ *.8.>...4 3 j.H.H.H.H.H.[ , d 0 E d.m.m.m.Y.Y.Y.*.l I.V.W *.[ [ [ g *.s.m.s.y.y.y.d.d.d.6 ; s d.w.w.e.W g l :.-.W [ x.j.0.0.*.s 5 d W t y 9 g *.9 - - d.K.s.Z.I.I.d.d.",
"d.6 4 *.w.m.d.8.u.u.y.s ..-.y.s.;.6 -.g.K.Y.K.K.d.j 5 ;.d.d.m.m.Z @ E F.v.v.j.*.* - g y.m.m.w.*.*.g *.H.z.k.j.k.k.k.L 7 - g w.Y.E.Y.Y.Y.F.;.g :.#.d.d.d.8.8.l l s.m.V.d.-.-.y.d.y.s - a d.d.d.8.#.6 6 z ;.;.[ 0.{ { 7.*.g - 5 L t 5 7 5 y - & g V.s.K.K.L.L.V.s.",
"d.l : E w.d.w.d.d.V.8.0 *.y.y.V.y.s :.B.K.Y.K.K.s.@.t V.V.d.m.F.*.3 *.D.v.j.v.;.4 - #.y.D.w.8.>.#.6 y.j.0.{ { { 0.j.j.~ - *.w.m.Y.D.D.D.D.#.6 l ;.d.V.K.V.d.l 6 d.s.d.d.:.-.y.V.-.l - #.d.d.V.e.#.l l 6 l e.{ ! [ { 7.d.s * , 9 9 5 , 3 - o o V.d.y.K.L.Z.y.d.s.",
":.l ; :.y.-.y.Z.Z.Z.:.6 :.g.V.d.d.6 d.B.K.K.K.K.g.*...g.R.D.y.y.-.3 *.d.d.8.d.:.6 : :.d.D.s.5.*.6 3 5.*.{ ~ P P / { 5.;.- #.;./ 8.y.d.d.d.4 = l :.V.Z.V.d.:.g 6 l :.:.:.:.:.:.:.l 6 : :.:.Z.Z.V.;...g - 6 :.d.d.d.-.:.;.3 * - - - - - - o o ; z -.-.:.*.l l l :.",
"l k 6 l l s s @.l z l : l :.Z.l g 4 *.*.y.*.-.-.-.l l -.y.-.a s 6 - l *.*.*.l g : 6 l l s ..a 0 = : l #.*.#.E E W g g *.4 d l g t 6 6 l l 3 6 -.:.:.:.;.;.*.0 3 g g l l l 6 6 6 6 - 6 l l l z l l s 0 ; 6 l l l l l g 0 4 z :.l 3 6 6 6 l :.Z.d.;.#.l l l h h l ",
"l l z z l s 3 - @ 6 6 l l l 6 6 ; 6 6 s h : - - 3 4 6 0 5 0 0 0 6 s 6 l h l 6 5 s d l s s 6 s g d k d 6 s g 0 5 0 5 5 6 6 d d 6 5 0 s l , 3 :.f.*.0 4 4 0 s g ;.d.;.l h l s 6 l l l l 6 6 : - 4 h 6 h *.:.:.-.*.*.l l l :.Z.:.C.:.d.:.g.Z.Z.Z.d.;.#.;.:.:.:.l l "
};
