/* XPM */
static char *c327a8bdc99642dcedda15819846098bOQ9XhWswMeZdSBLx[] = {
/* columns rows colors chars-per-pixel */
"64 64 240 2 ",
"   c #1B181A",
".  c #201A1D",
"X  c #221E25",
"o  c #24222A",
"O  c #2B252D",
"+  c #272536",
"@  c #2E2933",
"#  c #2D2A3C",
"$  c #322B34",
"%  c #332D3C",
"&  c #392F3A",
"*  c #39313B",
"=  c #2E2C42",
"-  c #312E45",
";  c #353143",
":  c #3B3443",
">  c #36334C",
",  c #3A354B",
"<  c #3D394B",
"1  c #3D3953",
"2  c #3B3957",
"3  c #423A45",
"4  c #463A48",
"5  c #443C4B",
"6  c #433D54",
"7  c #493F52",
"8  c #423E5B",
"9  c #47414E",
"0  c #4B424D",
"q  c #52414E",
"w  c #4C4354",
"e  c #4B4555",
"r  c #45415D",
"t  c #4B445C",
"y  c #514555",
"u  c #574954",
"i  c #52475B",
"p  c #544B5C",
"a  c #5B4C5D",
"s  c #5C515F",
"d  c #604D5A",
"f  c #64525E",
"g  c #464363",
"h  c #4B4663",
"j  c #4E4964",
"k  c #464569",
"l  c #4B466A",
"z  c #4D496B",
"x  c #564B67",
"c  c #544C64",
"v  c #5A4E63",
"b  c #534D6B",
"n  c #5C5264",
"m  c #57506D",
"M  c #5C566A",
"N  c #5B536C",
"B  c #4D4C73",
"V  c #4B4B75",
"C  c #534E72",
"Z  c #524F79",
"A  c #555173",
"S  c #5A5373",
"D  c #5F5975",
"F  c #55527B",
"G  c #5B567A",
"H  c #5D597C",
"J  c #615365",
"K  c #64556C",
"L  c #6A5768",
"P  c #6B566A",
"I  c #655A6D",
"U  c #6A5C6D",
"Y  c #645673",
"T  c #6B5573",
"R  c #645B74",
"E  c #6B5D74",
"W  c #605778",
"Q  c #635B7B",
"!  c #6B5D7B",
"~  c #735B74",
"^  c #735E7B",
"/  c #755C78",
"(  c #6C6276",
")  c #66607C",
"_  c #6C637C",
"`  c #726375",
"'  c #796674",
"]  c #73647B",
"[  c #7A637D",
"{  c #756A7D",
"}  c #7B6B7D",
"|  c #7F707E",
" . c #846A7D",
".. c #5C5A83",
"X. c #5A5985",
"o. c #645E82",
"O. c #675F84",
"+. c #666184",
"@. c #6B6384",
"#. c #6E6986",
"$. c #65628C",
"%. c #6C658A",
"&. c #6E698A",
"*. c #736584",
"=. c #7B6582",
"-. c #756A83",
";. c #7B6C84",
":. c #72678A",
">. c #746B8C",
",. c #7C6D8C",
"<. c #7D7185",
"1. c #77708A",
"2. c #7C728C",
"3. c #676592",
"4. c #6C6994",
"5. c #6D6B9A",
"6. c #746D93",
"7. c #7C6E92",
"8. c #716E9A",
"9. c #767194",
"0. c #7C7393",
"q. c #74719B",
"w. c #7B749B",
"e. c #7F799B",
"r. c #7A76A2",
"t. c #7877A7",
"y. c #7C79A4",
"u. c #836D85",
"i. c #866C86",
"p. c #836D8B",
"a. c #837186",
"s. c #8A7384",
"d. c #83738C",
"f. c #8A748D",
"g. c #86798D",
"h. c #8B7A8D",
"j. c #967888",
"k. c #927A8D",
"l. c #836F91",
"z. c #837593",
"x. c #8A7593",
"c. c #857994",
"v. c #8B7B94",
"b. c #82769A",
"n. c #8A7599",
"m. c #847B9B",
"M. c #8B7D9B",
"N. c #977A92",
"B. c #927C95",
"V. c #937D9B",
"C. c #837CA3",
"Z. c #8A7DA1",
"A. c #837EAA",
"S. c #887FA9",
"D. c #937DA2",
"F. c #997EA1",
"G. c #9C828D",
"H. c #8B8098",
"J. c #8D819C",
"K. c #948294",
"L. c #93839C",
"P. c #98879B",
"I. c #9A839C",
"U. c #9B8A9E",
"Y. c #A48898",
"T. c #AB929C",
"R. c #8C82A3",
"E. c #8A84A7",
"W. c #8681AB",
"Q. c #8C84AB",
"!. c #9385A3",
"~. c #9A84A5",
"^. c #9589A4",
"/. c #9B8BA3",
"(. c #9286AB",
"). c #9B87AA",
"_. c #958BAB",
"`. c #9B8DAB",
"'. c #9B90A5",
"]. c #9D91AC",
"[. c #8B86B1",
"{. c #8987B6",
"}. c #8D89B4",
"|. c #948CB3",
" X c #9A8EB3",
".X c #938EBA",
"XX c #9C93B4",
"oX c #9792B9",
"OX c #9C95BB",
"+X c #A18BA5",
"@X c #A28DAB",
"#X c #A591A6",
"$X c #AA91A6",
"%X c #A393AC",
"&X c #AB95AC",
"*X c #A499AE",
"=X c #AD99AD",
"-X c #B698A7",
";X c #B39BAD",
":X c #A08DB0",
">X c #A295B3",
",X c #A996B2",
"<X c #A599B4",
"1X c #AC9CB4",
"2X c #A397BA",
"3X c #A49BBB",
"4X c #AA9EBC",
"5X c #B39EB3",
"6X c #B49FB6",
"7X c #BAA0AE",
"8X c #ACA2B2",
"9X c #ADA2BD",
"0X c #B4A2B5",
"qX c #BCA3B4",
"wX c #B3A3BB",
"eX c #B9A8BD",
"rX c #C4A9B5",
"tX c #9B98C2",
"yX c #A29DC2",
"uX c #A99EC0",
"iX c #B49EC0",
"pX c #ACA3C3",
"aX c #ABA4C9",
"sX c #ABA7CA",
"dX c #B1A6C3",
"fX c #B4A6C7",
"gX c #B4A9C5",
"hX c #BBACC4",
"jX c #B4ABCA",
"kX c #B9AECB",
"lX c #BDB2CC",
"zX c #B1ADD0",
"xX c #BDB5D3",
"cX c #C6B6C8",
"vX c #C2B3CC",
"bX c #C4B9D4",
"nX c #CAC2DA",
"mX c #D5C8D9",
"MX c #E6D6DE",
"NX c #D3CBE1",
/* pixels */
"R.Q.(..X}.A.(.`.4X^.w.|.}. X}.t.A.OXtXtX[.q..XsXbXpXdXbX0Xz./.v.u.z.f.f.;.~ ' f.&X%XZ.Q.C.(.R.C.Q.Q.S.m.b.M.-.x.v.R.3.%.m.(.Q.q.",
"o.2XgXsX[.t.OX4X2XM.9.4.5.t.8.5.q.A.}..X.X X}..XoXOXhXvX0Xv.!.x.x.v.d.u.u.s.Y.$X;X5X`.yXW.).Q.|.|.[.A.(.Z.>.0.^.] G 5.r.!.R.y...",
"|.lXjXjXW.t.(.!.XXE # 9.r.8.8.y.}.}.y.{.r.q.}.q.5.$.(.cXeXM.L.V.u.u.f.h.h.B.$X$X$X=X(.Q.[.XX|.|.Q.S.Q.[.b.@.*.!._ r [.Q.Q.A. XXX",
"fXyX3XxX{.{.].H.4XR # 6. X[.y.W..XA.[.yX$.X.8.y.5.8. XmX0Xv.M.d.v.d.u.h.B.h.B.&XhXd.R.[.|.tX X X XW.|.W.C.*.Q -.c.: r. X XXXuXdX",
"pXoXzXsX{.tX2X^.dX2.X G  XfXtXtX.Xt.A.w.F V $.y.q.w.%.`.v.,.v.v.z.v.d.f./.h.f.B.R.;.z.y.q.q..XoXQ.W.oX|.Q.#.Y c.!.n , R.3XdX2XpX",
"y.t.W.{..XOXpX%XdX>Xw r r. XyX[.OX[.y.$.H X.$.Q.W.z.5 : } v.d.;.;.x.x.v.B.f.f.B.;.d.M.>.+.O.6.w.4.r.C.r.7.+.R ( ].;.;  XjX4X|.XX",
"5.(.e.3.t.t.A.<X3X4XW S m.J.C.OXsXOXe.o.S +.W Q W v % 4 H.c.M.d.;.x.v.d.v.f.f.I.` c.M.M R S m m 6.6.6.6.o.*.R J d.^.n >.pXQ.5.5.",
"Q.|.A...V 3.[.dXdX<X6 % p d J I n p 0 w 7 7 3 7 3 s h.g.M.( M.d.;.B.B.B.v.I.f.^.I c.;.v D A S v 6 m R.|.@.@.Y L ;.].XXw M oX5.5.",
"..t.W.5...%.,.<XhXgXH.n 3 0 u ` } v./.P.g.K.#X1X1X&X/.=X1Xg.J.c.d.f.a.B.x.f.u.E J !._.<X2.S < $ 3 v R pX@.S W R -.<X2X>X{ b g A ",
"_ +.q.9.{ ( P.4XdXdX4X1XeXeXeXgXbXbXkXwXdXhX/.<XhXeX^.-.<X<XI w [ v.v.x.x.v.;.u z.m.R._.4XM._ b G Q m W >.W E -.` ].pX4X4X].H.g.",
"wXH.v.L.`./.L.`.`.v.v.%X+X#XeX%X&X5X0XeX0XhX} ] lXnXw.l S +.K L.U.U U g.L.L.-.-.c.^./.^.^.].3XQ.H Q b.>.n J u p n `.4X^.c.H.4XhX",
"-XrXrXrXrX7X=XP.{ ( g.L.z.f.} ~ ] f.d.;.&X1X%X{ &.pX|.>.H b ] d.!.-.;./.^.'.2.j _ XX*.*.-.*XgX4X<.E z._ % p P.d.M.2.M./.Y.-X-XrX",
"T.Y.G.T.-X7X-XY.G.c.].V.d.;.a.d.d.;.V.z.x.eX%Xf.0.pX2XXXC.W R R ( p 2.R.b.9.>.; # ; + + - > e Q , = , -.wXXX].H.-.( /.Y.Y.$XY.Y.",
" . .s.' ' L L ' f.V.H.d.d.z.x.x.h.f.v.,.[ <.z.-.|.OXXX].].@.t 6 n ( (.XXC.m.m.b > - = # # # , = - > = 2 #.].2XgXM.f.i. .j.s. .' ",
"s.K.K.f.k.s.j.j.L.L.J.d.;.x.v.;.p.v.z.;.;.v.M.J ( XXXXwX`.0.Q W ;.,.Q.C.Q.C.9.J./.`.M.) 1 > 1 2 g g 2 - H OXXX] ;.v.f.a.u.f.I.I.",
"U.&X%X%X&X=X;XY.d.z.v.,.V.v.u.d.;.u.d.[ a.&Xv.] % XX|.>XR.!.S >.`.-.Q.4.(.lXkXxXpXpXvXcXD - 2 g z C 8 z Q.A.(.I M.L.L.@X%X$X#XI.",
",X%X@X0X5X5X5X+X-.2.v.z.;.u.p.d.x.L.u.u.v.1Xv.v.w c (.XX].R.+.m ;.-._.oXjXNXnXjXkXkXjXbXR.> > 2 8 2 2 9.OXyX3Xd.]./.k.L.L.L.0X1X",
"vX6X1X5X&X%X/.I.B.M.z.,.;.M.d.,.!.;.E ` ] B.B.d.U # p w.q.C.o.m i E R.pXbXmXnXnXbXxX2XbXkX(.g > 1 1 2 >.Z._.M.} J.v.+XB.v.+XdX,X",
"^.*X,X%X/././.I.K.J.c.,.=.d.b.z.` ;.*.E I d.v.g.d.b 6 6 m.e.+.Y t I S O.e.>XdXmXbXpXsXsXjXsX|.A 2 2 j C.}._.E !.M.M.@X%X&X,X*XL.",
">X>X<X,X@Xv.M./.v.M.M.,.;.{ E E ;.` ! ] =.M.v.L.v.Q 8 > c.@XR c c E D k $.G H `.<X2XpXW.C.|.W.r.$...|.jX.XI ;._.(.M.d.`.,X`.>X<X",
"*.{ v.;.;.R w ( } ^.z.z.! n n *.d.7.,.b.d.;.h.v.;.D r r *.;.w r S -.R b A F G %.$.q.W.q.8.w.8...F C D R w d.`.(.).`.v.1XwX!.z.!.",
"M.z.E ;.n 6 i K ] R.z.z.Q p i i ] ,.z.n.*.E ;XP.v._ t 3 $ & I M 9 ` E i +.@.@.#.o.4.5...$.w.R.C.4.A v $ { >X_._._.2.;.E !.^.b.c.",
"p p u u ( c.P.v.,.m.R 4 7 p I y 3 p i v a s.;XL.%Xg.] ` ;.M.Z.M.!.!.`.J._ M M _ -.z.m.b.M.M.J.M.O.j $ ;.`.R.M.c.c.n $ O $ 9 w 3 ",
"M.!.~.XX2X].%X!.E I I : 3 v./.a.u p K E K.#X%X1XdXhXgX*X%X].J.M.M.m.z.>.2.*.c : @ 3 I ( -.c.M.M.@.: { (.0.c.c.*.-.( _ n : 5 ` d.",
"c.M.J.d.z.v.!.kX9X2.>.#.0.dXkXjX>XH.a.{ v.1X,X0X1XhXcXvXhXeX>X`.M.;.!.wXhXhX*X2.R._.M.5 $ <.%X`.2.].9X`.z.: : 2.^.9XR.#.#.].!.^.",
"A (.>XL.v.|. X X|._.9.w.9._._.R.m.d.a.U ;.K.0X5X1X,X$X&X5X0X%X2XpX`.}._.M.`.bXlXpX2X`.4XbXnXXXR.9.+.2XxX(.w A C.9.R.B X.m.5X%X-.",
"z _.4X4X|.Q.C.e.>.6.b.w.e.R.6.w.@.;.a.1Xz.;.eX$X$X-X-X-XqXeX,XXX>XXXC.6.O.3.Z._.b.<Xv.2.6 m.pXbXxXgXgX2X_.K +.t.X...k X._.mX0Xk ",
"4.XXXX>X(.w.q.y.6.6.b.m.>.-.*.*.Q v.%X<X(.&X5X&X;X-X-X-X;X7XwX_.`.(.y.A.Q..X(.0.@.`.` g 2 _.kXkXkXmX<X2X>X;.E.W.V 4.Z X.pXmXR.$.",
"t.OX_.`.Q.y.y.XXm.#.C.R.9.0.9.z.&.R././.z.;X5XqXrXqXqX-X5XrX1X_.`.C.W.yXjX.XQ.6.w.fXv.g #.lXOX2XXX>XR.pXL.,.w.H X.y.5.sXmXnXoXy.",
"{.XX`.^.A.r.>.-.>.>.#.b.w.z.E.+.N >.^.`.L.5X=XqXqX5X&X5X-X5X6X`.`.m.6.w.Q.b.:.6.6.`.;.+.pX<Xw.6.e.R.M.pXd.y c k F ..$.9.G hXMXzX",
"mXXX`.`.m.6.@.+.&.+.@.H +.Q >.D A *.(.].L.eX;X-XqX$X/.0X;XT./.L.`.0.>.G H _ @.O.@.!.L.m.(.m.>.>.>.>.0.R.: a ; G $.e.%.w.3XMXMXmX",
"-.i w w n 2.R : : e < K 2.].J._ Q _ -.( M.$X&X;X1X#X;X;X;X#X+X>XXX(.b.S S z.z.>.S +.@.b t c c t , w t @ * 9.;.>X2.' Y.cXjXwX*XY.",
"3X].P.<./.hX4X^.].L.I ;.E v.c.( *.R 5 w 2.;.R <.v.g.n J ;.*.M _ 0.0.] v.J.0.>._ _ n 9 @ y 2.( 3 O       5 C. XR.>.%   o @ @ O i ",
"c._.3XXX3XyXR./.1X/.;.L.| <.E M R R a K { 1.-.` <.c.!.].9XgXgX<XL.<X9X2X(.>.N 5 b m D W D b , = # o + o ( 3XC.9.M.XXH.-.N I E ;.",
"] -.( -._ c.] h.k.s.v.K.0X*Xc.P.K.a.*.g.s. .~ -.} I ( v.(.R.m.J.z.M.-.M v p i : % @ % t c b j e , + + = _ R Q R I 1.(.R.c.z.d.;.",
"/.J.0.;.P.<XH.} } U } '.#X|.C.lXbXuX:.>.6.@.S S b.M.2.M.2.( *.R 2.z.*.;.] -.z.E n 4 $ 3 9 w n e p w ; v R >.c.R 2.E n -.c.L.L.!.",
"V.v.x.Y.Y.N.$Xf.` U { -.` *.z.R.|.zXA.w.W l b z C Q c w N w E *.>.>.W 7.%.o.#.7.d.z.d.z.d._ -.>.m c R M.>.b.4XM.XX].^.z.L.!.z.*.",
"V.z.B.&Xj.f.$X-X=XU.U f a b 8.$.9.R.m $.G b b S H b _ E E p M.6.%.@.A W S W #.Q ! @.7.C.^.!.`.(.;.v.6.%.@.G Q >.m.M._.z.,.7.@.b.",
" . .:X).v.h.k.Y.&XvXeXqX} z 4.r.w.&.t z %.S H +.H b I R { ( >.#.>.o.S m S S @.Q Y ` ] ] 7.!.2.R.^.Z.%.6.@.b m S M ^._.@.! @.7.7.",
"k.i.Z.Z.n.~.@X>X@XwXvX1XU.r y.o.Q +.h r b b z S o.o.t t Q E W @.W S S b h j W >.@.@.! p.z.m.0.>.M.9.+.+.o.W W c D ^.J.! ! R K ! ",
";.,.z.Z.,.l.M.).D.>XpX%X0Xn 6.A A z #.e.2.b h z G A S 6._ -.Q Q S b A H S h b S o.>.>.Z.m.>.-.W 2.6.Q S S S W v 7 ;.(.4 >.>.! O.",
"z.*.! ,.b.M.M.Z.m.m.`.U.eXv.@...2 6 2.@.M.Q r g g C b #.^.L.R Q S A m S A S c S G +.0.m.R.c.I 2.c.#.Q S b h c 2.-.{ >Xp N :.7.,.",
"*.] >.,.,.,.p.,.6.>.4X~.0X*X_ H r k &.e.Q g 8 g g r g b J.J.R S W A S b t c b b S A N R @.M.M.m.,.+.W S S b t t c E <XE t x Y ! ",
":.,.:.*.7.,.M.M.*.2.jXM.v.%X-.+.F F 6.&.S t > g z B g b _ ` ;.W W H Q H v c S S b N R ! Q t ;.c.Q Q Q Q o.W b A r s >X;.t x Y O.",
"x N R ,.z.n.n. X).0.XXQ.;.g.v.N l l @.A r 6 3 e : ; ; b c.P./.*.*.@.+.W p w 7 3 q f a N S : { R.@.o.*.@.>.:.@.@.6.v.2Xd.7 5 M S ",
"i y J v v 7 7 R :.! z.d.} 1XwXP.2.1.M 0 3 d.].d.n n p w <.d.hX^.K R y O X . .   & u u f n ` !.M.6.o.*.&.#.Q >.W ! 1X>XM.-.x : w ",
"! ^ J 4 & * 3 3 O 3 R ` } 2.^.>X3XpXfX9X`.pXjX2X X(.,.w.c.v.`.(.b.w.,.d.` I ` } K y a 3 $ ;.2X2.-.@.Q +.c j H c t v.2XR.-.x v p ",
": : $ . $ 7 3 3 & 0 } K.8X=X%X/._.^.M.R.2.>.A F B z b l C z.^.M.(.Z.Z.Q._.`.`.XX XR.;.K N c.XX_.i O @ 5 t t j v N i /.>Xz.y * @ ",
"X o X y { /.1XL.V.).z.M.<X%XY.K.d.a.g.1X^.A B F B z Z G l b @.R.m.>.,.,.R.(.`.M.J.M.,.,.M.Q.b.R.^.n X o $ & o 3 J <.g.} a.} U $ ",
"y 4 <.v.%XB.[ L.!.,.E u.f.s. . .^ ] L  .].W g z g Z Z B Z h t M.M.U.'.J._.R.R.e.J.H.M.M.R.c.( w.(.2.d.@XL.x.d.!.vXkXdX%X9XwXL.;.",
"%X%XwX%X&XB.=.x.x.=.^ i.I.Y.I.i.d.=./.k./._ o.b k l z F X.S K ;._.P.OXE.R 6 r 1 6 > , S z S -.Q.R.*.L./.~.x.!.*.p.V.~.L L.@Xx.x.",
"1X<X<X!.).n.D.4XiXhX~.x.0XrX6XD.V.B.p.L.J.R t r k z ..$.O...( ;.].} #.R.D 6 r r 6 > # ; m .._.3Xb.*.9.E x.p.p.l.^ =.p.[ f.l.n.!.",
"/.hXkXz.~.F.D.M.4XvXfX:XeXwXhXD.p.p.x.v.*.v O X z X.F V F C 6 I ].n b q.S S g h t 6 6 > ; ; >.R.|.z.z.E x.x.p.;.[ =.p.+XV.F.V.` ",
"/.kX4XT @X,Xn.n.).`.~.~.V.D.~.n.,.x.x.v.%X] N # o l F A B G S ;.>XI z q.c c o.h b b b h 1 ; c 4XsXR.V.p.p.f.p.^ =.i.x.V.@X1Xp.p.",
",X].9X^ V.V.V.~.,.*.x.M.l.n.D.V.,.x.E ( hX/.9.G o % g g 8 S 9.%X2Xc.h y.A 1 N #.Q Q H @.H g S ]. Xm.4XV.] ^ f.u.u.~ ^ p.=.x.V.F.",
"@XbXbX,.p B.@X*.! *.^ ^ ^ u.x.x.p.I p <XdXlX^.e.b o 6 8 1 t K *X>X%Xy q.h 1 6 b Q >.%.%.%.6.6.M.(.>.(.f.^ ^ [ f.^ ~ ~ =.i.f.+X~.",
"F.wXnXlXt O a ^ J R ,.E T [ p.[ 3 0 %X].`.9XvX`.G r , 1 , t v ;.1XwX} &.S c r h A %.+.$.H e N c.-.*.M.*.T ^ T / T ~ / p.p.f.@XV.",
"L.<XxXxX4XR : w *.=.p.~ ~ [ K 3 n ;.v.XX<X3XgXgXR r , 1 ; & 9 J %X<X^.W A o.h h H o.$.Q , ; % 2.v -.>.! J ^ T Y Y =.K =.u.=.;.;.",
"p.v.dXjX9X9X`.2.3 & O $ 3 3 p c.%XP.M.XX2X<X^.].L.c w @ 3 * U XX(._.XXR.h W C j j C h < e t h E 2.) R J ~ L ~ ! Y Y T ^ =.=.p.~ ",
"J d.pXjXdXpX4X4X`.{ E I { /.`.H.J.L.d.J.R.d.( M d.%X/.U ` ;.z.XXXXXXOXsX>.C h h g z = # % : -.p 2.p 7 v J ` I J E T ^ ~ u.i.x.v.",
"` ` J.2X2X2X`.J.!.`.<X1X9XjXvXXXOXOX(.M.].E.C.w.pX.X6.>.6.>.2.XX|.(. X_.XXM , > e _ W 5 % ; w I v.c.c @ o o $ O $ 3 4 0 y q a I ",
"`.L.( *.m.;.c.^.d.^.].y.W.A.W.r.5.}.y.q.4.q.y.A.y.r.X.y.5...d.`._.Q.b.) ! 2.w O * : 3 $ : w I a.!.`.v.u & u wXd.;.2.-.v.].].L.L.",
"z G O.D S m z.<XwXL.>X[.pXOXy.}.y.8.q.q.4.r.}.OXq.w.m.8.3.3.c.!.^.L.]./.*XkXL.: . $ 0 c.b.Z.D.b.0.Z.n.d.;.I v.9XwX<Xc.m.XX4X>X9.",
"6.q.b. X3X%.].2XgXv.e.OX.XyXOXQ.A.{.tX}.[.q.Q.OX|.pXhXhXjX|.0.H.E E ;.d.h.B.U h.` { v.S.r.C.Z.w.w.(.|.Z.(.Z.;.%X0.8...G m.].,Xc."
};
