/* XPM */
static char *_639634dd66f43ef9ac82cf006adb097kbBvVDOAVzgsMIps[] = {
/* columns rows colors chars-per-pixel */
"64 64 184 2 ",
"   c #1E1C1D",
".  c #25211F",
"X  c #1E1E22",
"o  c #211F22",
"O  c #1F2025",
"+  c #252324",
"@  c #292625",
"#  c #2C2927",
"$  c #26252B",
"%  c #29272A",
"&  c #2C292C",
"*  c #312C2D",
"=  c #282731",
"-  c #262835",
";  c #2C2B33",
":  c #272939",
">  c #2D2D3B",
",  c #322E33",
"<  c #312F39",
"1  c #2F303D",
"2  c #343136",
"3  c #3A3336",
"4  c #34323C",
"5  c #3A353C",
"6  c #373938",
"7  c #3C393F",
"8  c #2D2E41",
"9  c #2E3143",
"0  c #2F3249",
"q  c #343443",
"w  c #393743",
"e  c #363846",
"r  c #3B3945",
"t  c #34364A",
"y  c #393749",
"u  c #36394C",
"i  c #3B3B4C",
"p  c #323751",
"a  c #363952",
"s  c #3B3D53",
"d  c #363C5B",
"f  c #3A3E5A",
"g  c #413C45",
"h  c #413E4C",
"j  c #413F53",
"k  c #3E404F",
"l  c #3E4155",
"z  c #3D415B",
"x  c #3C4363",
"c  c #3F4768",
"v  c #3E486D",
"b  c #414040",
"n  c #44424D",
"m  c #4A444E",
"M  c #4B484F",
"N  c #434354",
"B  c #494654",
"V  c #4C4A55",
"C  c #43445B",
"Z  c #49475A",
"A  c #46495D",
"S  c #4C4B5C",
"D  c #524B52",
"F  c #514D5C",
"G  c #4F525E",
"H  c #54525E",
"J  c #58575E",
"K  c #62595B",
"L  c #424662",
"P  c #454A63",
"I  c #4B4C63",
"U  c #444A6A",
"Y  c #4B4E6A",
"T  c #514E61",
"R  c #524F6B",
"E  c #4E5164",
"W  c #4D526B",
"Q  c #535364",
"!  c #595563",
"~  c #575966",
"^  c #5B5A65",
"/  c #53556B",
"(  c #59566A",
")  c #56596C",
"_  c #5B5A6C",
"`  c #444F72",
"'  c #4A4F71",
"]  c #4C5272",
"[  c #4D597B",
"{  c #535672",
"}  c #555A74",
"|  c #5B5D73",
" . c #555B7A",
".. c #5A5E7A",
"X. c #645D66",
"o. c #625E6C",
"O. c #615F73",
"+. c #5E606D",
"@. c #5E6175",
"#. c #5D637C",
"$. c #656364",
"%. c #65636E",
"&. c #6A636A",
"*. c #646374",
"=. c #696573",
"-. c #676871",
";. c #6C6A75",
":. c #64647B",
">. c #69657A",
",. c #66697D",
"<. c #6B6A7C",
"1. c #736C75",
"2. c #736D7A",
"3. c #79747C",
"4. c #555E82",
"5. c #5C6384",
"6. c #59648A",
"7. c #626682",
"8. c #696780",
"9. c #646984",
"0. c #6C6C83",
"q. c #656B8A",
"w. c #6A6E8B",
"e. c #706E84",
"r. c #716F89",
"t. c #6E7183",
"y. c #6D728C",
"u. c #737284",
"i. c #7A7683",
"p. c #7D7C85",
"a. c #73748C",
"s. c #79768A",
"d. c #74798E",
"f. c #7C7C8C",
"g. c #696E90",
"h. c #6D7392",
"j. c #6F779A",
"k. c #737592",
"l. c #757993",
"z. c #7A7B94",
"x. c #757B9B",
"c. c #7B7E9A",
"v. c #757FA1",
"b. c #827B87",
"n. c #827D8B",
"m. c #807D91",
"M. c #7D829C",
"N. c #7781A0",
"B. c #7C82A2",
"V. c #7B84A7",
"C. c #7E87A8",
"Z. c #7D88AC",
"A. c #838294",
"S. c #898594",
"D. c #81839C",
"F. c #89869B",
"G. c #8C8A9B",
"H. c #95919B",
"J. c #8386A2",
"K. c #8688A3",
"L. c #8C8DA4",
"P. c #8189A9",
"I. c #858CAC",
"U. c #898DAA",
"Y. c #8F93A6",
"T. c #8E91AB",
"R. c #9492A4",
"E. c #9897A6",
"W. c #9C9AA3",
"Q. c #9294AD",
"!. c #9E9CAA",
"~. c #828CB1",
"^. c #848FB1",
"/. c #8791B3",
"(. c #8A93B2",
"). c #8D97BC",
"_. c #9396B2",
"`. c #9499B5",
"'. c #9198BC",
"]. c #9A9EB9",
"[. c #A9A3AC",
"{. c #A8A6B7",
"}. c #AEACBC",
"|. c #949EC1",
/* pixels */
"k e i s s f f a 4 ; & & & * , ; ; & $ ; ; $ ; ; e s P I i s C a < ; & % @ + + + + @ * 2 5 w y 4 $ % & n Q $.J Z Q %.) Q N N N N ",
"{ W P Y ] ] U L L y & @ @ % # & & & % @ + + ; N #.P P W W Y L q y 4 2 ; ; $ ; e i i N ( } / Y L a > & & y ^ Q Q ! V Q N N S Q / ",
"l.w.q.9.w.9.:. .Y L s ; @ @ @ @ @ @ +   X ; A W Y q z ] { L 9 8 N s 4 2 4 A 7.x.P.P.x.B.I.~.j.6.[ c u > & i G N 5 i i h _ :.d.D.",
"L.k.w.a.a.0.w.k.9.{ U C q ; % % + + + + ; s C I z : > q q a a i C I s 4 Z N./././.|.(.V.V.~.B.B.C.j.[ x t ; ; , 4 r r ( d.l.M.J.",
"D.D.0.<.*.*.:.w.a.0.} Y P s < & $ $ ; $ t  .W ] f : : > : a C L I } _ q ..C.^.^.Z.).'.P.7.#.h.x.K.T.U.x.5.I q 5 5 4 I #.9.y.a.l.",
":.0.0.<.O.( ( O.0.0.8.:.{ R s < & $ & > a P  .f 8 : : > 9 e i s I I *.C ..x.Z.v.5.h.x.x.9.P C W 9.l.z.P.D.a.Q 2 w s W #.9.0.l.*.",
"{ _ *._ ( ( Q Z | 0.0.e.8.:._ s > = $ 9 a > a t 9 : q t ; r q y Z N ( I W h.q.{ s l P C N I C z W 9. .} d.e.n , t L W | y.l.l.a.",
"a.<.( T Q Q T C Q *.>.0.z.w.8.R q $ $ t s s 8 8 8 0 t q 4 y a t B S T Z u ) ..z q 1 t C #.7./ s P k.P.w.:.H 2 4 i I { 9.y.l.z.l.",
"s.a.:./ T Q ( / Q _ :.*.0.r.a.:.i $ $ s a t a t a z a 4 y i q q q i H I s E / i > q q A y.M.W i C #.z.0.T r w q s C / } | :.,.a.",
"u.a.e.( F Z Q Q Q Q O.:.| :.e.O.i O + s t : q t 9 t s I I s y q > i S i } w.{ i t t u i / 9.P i i N N r w r ; q s P C I Z E _ | ",
"0.a.u.H B Z Z S T S ( | _ ( >.( 4 + o > 8 - 9 s a s N I C N i q 4 N j q ..x.k.W C l z s h Z e 4 ; & * * 5 w > t a s N h N Z _ :.",
":.>.2._ Q T B N h S Q Q T ! o.F ; o   a x 0 9 8 9 t N Z C j y 4 2 h B q P w.x.#.A s w , & @ @ @ @ & 2 5 5 4 1 q t y i i N Z Q | ",
"*.u.=._ F B N B Z N Q Q B F F g @ +   $ 0 t u t 8 q a C q y y 4 , w Z i > q N y & @ @ + + % > 4 q 2 2 r h > > q q w i i i Z T / ",
"*.<.=.( ( F F T B h g h m m g & % + +   = 9 s f t > > i q > t 4 4 q N N ; $ @ + @ @ @ % ; i I W } I e i y ; ; 4 4 4 5 w i s N Q ",
"S ( ! o._ Q Q B g g w w w 3 & + % + + X o : > > > ; q q q q f s 9 > w 5 & & % % % & ; : t I | :.w.a./ h y > & ; 4 4 < > q q q h ",
"5 r B ! _ Q B g g 7 7 3 * # + + + = = $ o + & , ; 4 s a > q C s q 4 2 , & & ; ; > > > q C / | | w.c.0.h ; ; 1 : & ; q 4 4 q 5 2 ",
"5 w h n h g g 7 3 3 , * % $ ; ; : 8 > ; 8 - $ % ; 4 e 4 : 4 i t 9 q w , @ ; q 9 t t t s Z I _ *.0.d.e.h ; % 2 q 1 ; 4 q q 4 4 5 ",
"3 , 5 7 5 3 3 , * # @ % & > 9 9 t a t t f d p 8 = ; , ; : > t t t s w $ $ q s f L C C s B S Q ( O.<.*.w 4 ; & 2 6 < ; 2 5 w 5 5 ",
"& & @ # * * & # # % $ < q t a z z x z t s C z L z a > ; > q q 8 u h , o ; L Y U Y P I I N i w h S _ S 5 4 , % + % & 2 , , 2 & & ",
"& & & @ @ + + @ % ; < t s z z z a z L z s C C C C L L a : > u 9 4 % + $ s }  ./ Y C Q I i , ; > i Q ( 5 ; ; & $ + @ % & * & % & ",
", ; ; ; & & % & % ; t i a C C f a u C A l a a s s L I P a : = ; + + $ ; I | | / W C B i h y > q A 0.Q < ; 4 > % % & ; ; q q 4 4 ",
"d t t q > ; % % % 9 a s z z f a 0 9 t l s t q t i N C C a > $ ; ; % $ 4 C I Z C Z s e 4 e C C Z S *.B ; 4 w ; : 9 p d a d d x f ",
"5. .Y z z i 1 $ = t C I C C a a 9 8 q y t t 8 t q s i j i - q s L q $ q i Z Z Z N N I N i I I Z B B 5 ; 5 e 9 d x v U U  .4.5.5.",
"q.g.q.} } I u X $ q s P I C a t > > > q q > 9 q > t y i q t s C I C : q e y Z N N s Z C Z Z j B N h < ; > > d U U U W  .5.q.q.q.",
"w.w.q...../ s X $ q q u C f t q 8 - - > t t > 9 q q 4 ; > q q y y i : y q q h N Z Z C Z Z N N N B h ; 4 > 9 x z W } #.#.#.9.w.q.",
"k.w.w.q.5.} C = + > q 4 i i t 8 > : : : q 1 > 1 > ; ; ; ; ; ; 2 5 2 $ q 4 q y h N I I N Z B i B B 5 ; q t a f z x W #. .#.9.w.h.",
"w.q.q.9.5.{ C : X & ; ; q i q 9 > > : : : ; > ; $ + + $ $ ; , & & & X 4 4 e i y e i N h N h h N w ; 4 q u u s z z P W { 5.7.9.y.",
"9.y.w.9.} } N $ X + @ & ; ; > > : : ; > > : $ @ % ; & < y q q > ; 4 ; ; ; 4 4 4 y q q q y i i r ; ; 4 t t t a u s l A I W } | #.",
"#.9.5.../ W t $ $ + o + @ $ $ & ; ; ; ; & 1 5 5 S _ ) Q _ ) | | ) | A ; ; ; 4 q q 4 q i j N h r , ; q f z f u z l s C C L W #.9.",
"} } { W C l q ; - : $ + + + + @ $ $ ; y N Q <.<.<.:.) Q ( _ @.d.,.@.S & ; ; < , < 4 q y e y i 4 < > q t u t 9 u C l s s C I E / ",
"{ W I { } { q > > q s l i y N S Q E Z u E _ | :.0.( I ) ( _ _ :.:.| _ w & ; ; < q q < q y Z n , 4 q 9 t t t t u s l z s z P W / ",
"9.9.7.9.#.A 6 N Q Q @.:.| _ | 9.a.| :.| / _ _ 0._ Q ( Q ( Q ( :.a._ =.*.& & & 2 V _ =.<.<.u.F.i._ f.*.1 i Z l s s C z C C W #.#.",
"7.q.q.#.) I 6 N A A ) :.,.y.@.) t.:.9.,.,.,.a.l.*.Q *._ T S <.l.0.( ,.:.; 5 B ! ;.m.G.F.A.<.R.R.) _ W.b + r N E _ A s C C E W } ",
"}  .#.{ S r 2 i i k *.u.( | 0.:.:.@.y.l.M.M.l.0.a.:.| O.S Q ,.l.0.| Z 5 , N S F Q O.:.<.%._ u.G.=.*.E.3.& , B H G.!.E.A.<.E P W ",
"W E N N g g M H I N @.,.| / ,.9.0.y.0./ #.0.@.| :.:.( :.( Q Q ( / S 4 < h j i N N N h B F H ^ e.A.S.!.[.^ ; w i Q H %.E.}.{.s.W ",
"y w 5 r g 7 7 V *.{ P A C | 9.I E t.:.) e A _ _ <.( N Q I Z _ _ ) N w y y i i i h e q y r n n B ^ 1.n.W.f.; & @ n Z ; q *.H.i.r ",
"; & * & & , * i E ) I s l I { ) I / N ) 7.A Q | Q S N S Q Q Q *.T y q y e e r y i e e y r r 5 6 g w r ^ %.y ; @ + D F n r > : ; ",
"2 , , 2 , , 2 5 N #.W l l l s u s u k W l i k Z Q Z N | O.Q Q Q T q t y y i e i i y i y n F V 5 , 4 H F n q q ; + & V B F n w w ",
"B i h n B g h 5 Q :./ N C C N u u i q q ; ; y N Q ) T Q ( Q B N S 4 i i i q e e i e h N Z Q Q ! V r V N 2 4 q i q ; 4 5 2 5 w m ",
"Q.K.a.:.<.o.^ m S _ / l C A N u t e u q 4 4 5 h h i B B Q Z V S N 4 q y h e e r y i N N I | ^ K %.S N N q q y N i i r 5 h _ 0.D.",
"B.`.`.].T.s.=.o.,.:.S q q u i u i y 4 q e q 4 r 5 w V S S r n n 2 5 4 q e i y y s i C / ..s.3.1.*.:._ S 4 i N i i i q / ,.B.C.B.",
"9.D._.`.`._.F.o.( A q u i q q t i u i 4 q q w w y q N N h i Z N 2 4 2 4 q y s s N f Y | :.;.3.| :.u._ H w r N W l N 5.W x.9.7.y.",
"{ 0.9.w.l.I.Q.s.B s u q e u q 1 4 1 4 4 q r 4 4 i h S / i N N w 5 4 q q q e y q u C I Q o.&.2.u.=.1._ n 2 i } } 4 e A > l } / E ",
"A y.w.w.x.h.K.Q.*.y q q 4 4 q > ; ; ; ; ; 2 4 ; y N i N B h B 2 ; ; q 4 & ; ; > 4 w r n H &.( S ( J B 5 N r y i l C t P l u i N ",
"u { B.B.q.7.:.z.e.r & , , * & & % % % % % % & & 5 2 2 w m 5 r & + @ ; ; % % & & & , 2 2 n ;.z.9.H n 5 ~ >.i > 4 N / P | Q 9 / A ",
"s q i | ..| ) Q J N ; @ @ @ @ @ + + + . + + @ @ % & % & , w 4 & % @ % % & % & % @ @ % & 2 V F F g 7 ~ Y.f.N 2 ; , , 5 n N t 5 i ",
"5 q q N Z N N H ! B i , + @ @ + @ @ . + # @ @ + @ @ # & # w ; & t 9 t 4 w 4 2 4 w , & % & , r n V %.Y.T.u.h 4 ; % @ % % ; 4 4 4 ",
"; , , 2 2 w S V m n r 4 , , ; & & & & & % # & & @ & * * & 2 % % , 4 z C e 2 2 5 N N 2 & 2 r %.i.=.t.`.D.%.h y y 4 & @ & % & * , ",
"& @ @ & & 5 n 5 m h r q q < > > : : ; : > ; ; 2 3 * 2 & , % + + % * , 5 4 < 4 4 < ; 2 6 m V i.n.<.,.u.J F ) #.W s 1 & & + . + & ",
"3 3 * @ @ & * 3 g N Z C P W P a t t t t q u s q 2 5 2 & & + + $ ; 4 < q q > 8 t a s C E 9.M.n.b.o.V D H 9.y.9.9. .x 0 ; $ + @ , ",
"w V g , @ @ , S :.y.a.y.7.#.9.} W P / ] I Z I ( E , & & % % > 9 s C L z f f x c ` ]  .q.q.B.Q.2.5 m X.<.#.I 9 u s C c p 9 ; ; 6 ",
"i N m 5 & 2 F >.0.l.c.l.w./ } Z C P I S I I ..0.d.| q @ + t z x L P ] U U U x z P U Y ] #.d.L.i.! =._ u i N P y 1 u s U x t q y ",
"q 4 n r q Q O.:.7.7.q.7.} I I I Q C Y Y P C s { M.J.z.Q : z U x z I U x z P f i l L P P P ( ;.b.2.^ i > i l l C z c x W #.W d q ",
"W l r 5 N a.J.9.I s / I Z B Z .. .' L U z C a u / z.( N t s C z s C C z s s s s l P A l i N =.i.1.o.s P W P y u } { U I Q { #.} ",
">.V 2 $ N *.0.Z j t <.:.:.) C W { ] Y Y Y P f a C d.V 4 q s i s s C C N i q y y s s s s y s H X.^ Q A Z N y 4 W ../ I / Q ) ~ :.",
"^ S 2 $ y B ) N i | D.l.a.*.C W ] Y I I W Y I a l Q Q 5 e i i y N P C N s t q q y i i i i i V D F Z s s y q C / Z I W @._ Q S Q ",
"! S 4 % < r F n Z / W 7.w.) Y  .{ W I I L C j u N *.S ; y i i q y Z A Z N s y q y q s s y q m F l u i u t A / n N A I *.~ Q H J ",
"H N , ; , 5 r y Z I C P | } W ..{ / L C N j i t i ( S ; < y l s y N I I C N N N C s s s y h D V u i i t i E ^ S Z S A *.+.! ~ _ ",
"h r ; ; , 5 r 4 y C I C Z I P { / Y C C s N s y q r , ; 4 4 y i l C I C y N y y N C s i i n M N i i s z } ) +._ H H S _ ,.Q Q V ",
"N k w 2 & , w , 2 i C I Z Z z P Y / Z Z N s t > , ; ; 4 < ; ; ; q s l N i N q u y i k i r V h h Q W W  .) :.%.^ ^ ) @.t.f.;.~ ~ ",
"N i g r % & 2 2 & , j I I Z s C P Z I Z C i t 4 & % , & & % $ $ ; 4 4 q q n i u s C I k 4 n r , I 5.} E A ~ Q ~ +.E _ _ ;.p.-.^ ",
"i r n r 2 % & , & ; e i C C C C C T N C N q 4 & % @ % & % $ $ $ & ; ; > 1 > > q u i n 5 ; m r , N :.E A N H A Z Z n B Q ;.;.-.V ",
"N r n r 6 , % & & ; 2 5 q y l z s Z A i y y & % & & @ + $ : = ; % & ; ; : ; : > 1 q g m B n r , ; S ~ S n H A Z S N i n ! %.Q N ",
"i r i q y q 4 ; & & * , 2 4 4 q q : > i q 4 & ; ; ; ; y A I s y ; % @ $ $ % $ ; ; ; 6 m g g 4 4 & % m Q V J A N S H V V n S I q "
};
